<svg version="1.2" xmlns="http://www.w3.org/2000/svg" viewBox="0 0 800 800" width="800" height="800">
	<style>
		.s0 { fill: #b3ddf4 } 
		.s1 { fill: #353737 } 
		.s2 { fill: #363738 } 
		.s3 { fill: #f5f7f8 } 
		.s4 { fill: #3a3b3b } 
		.s5 { fill: #f8f8f9 } 
		.s6 { fill: #b5dbee } 
		.s7 { fill: #353839 } 
		.s8 { fill: #f3f3f4 } 
		.s9 { fill: #313433 } 
		.s10 { fill: #4d4e4e } 
		.s11 { fill: #575656 } 
		.s12 { fill: #323739 } 
		.s13 { fill: #343438 } 
		.s14 { fill: #31383e } 
		.s15 { fill: #f0f0f1 } 
		.s16 { fill: #333537 } 
		.s17 { fill: #f3f3f2 } 
		.s18 { fill: #333a3c } 
		.s19 { fill: #f8f9fb } 
		.s20 { fill: #555a5d } 
		.s21 { fill: #343434 } 
		.s22 { fill: #545455 } 
		.s23 { fill: #43464b } 
		.s24 { fill: #eff0f0 } 
		.s25 { fill: #373737 } 
		.s26 { fill: #354149 } 
		.s27 { fill: #4c4e4d } 
		.s28 { fill: #4a4a48 } 
		.s29 { fill: #add3e7 } 
		.s30 { fill: #535657 } 
		.s31 { fill: #aed5e8 } 
		.s32 { fill: #bfe4f7 } 
		.s33 { fill: #ededef } 
		.s34 { fill: #363636 } 
		.s35 { fill: #b1d6ea } 
		.s36 { fill: #badae5 } 
		.s37 { fill: #edecee } 
		.s38 { fill: #b2d4e7 } 
		.s39 { fill: #353637 } 
		.s40 { fill: #333533 } 
		.s41 { fill: #aed6e8 } 
		.s42 { fill: #aed1e4 } 
		.s43 { fill: #515657 } 
		.s44 { fill: #cfeaf6 } 
		.s45 { fill: #add2e7 } 
		.s46 { fill: #ececec } 
		.s47 { fill: #535555 } 
		.s48 { fill: #e4e5e6 } 
		.s49 { fill: #363637 } 
		.s50 { fill: #747374 } 
		.s51 { fill: #535353 } 
		.s52 { fill: #afcede } 
		.s53 { fill: #343c44 } 
		.s54 { fill: #4e504f } 
		.s55 { fill: #dfe0e0 } 
		.s56 { fill: #e8eae9 } 
		.s57 { fill: #3b4550 } 
		.s58 { fill: #e0dfdf } 
		.s59 { fill: #abd2e9 } 
		.s60 { fill: #a6cbdc } 
		.s61 { fill: #fafafd } 
		.s62 { fill: #abd3ea } 
		.s63 { fill: #595a5a } 
		.s64 { fill: #454545 } 
		.s65 { fill: #313533 } 
		.s66 { fill: #eef0f0 } 
		.s67 { fill: #afcddd } 
		.s68 { fill: #524f50 } 
		.s69 { fill: #e7ebeb } 
		.s70 { fill: #e6e7eb } 
		.s71 { fill: #e6e7e8 } 
		.s72 { fill: #edeced } 
		.s73 { fill: #b1d5eb } 
		.s74 { fill: #3a4449 } 
		.s75 { fill: #3d4a55 } 
		.s76 { fill: #ebefed } 
		.s77 { fill: #abc9d3 } 
		.s78 { fill: #bce3f7 } 
		.s79 { fill: #5b5c5b } 
		.s80 { fill: #373a38 } 
		.s81 { fill: #32373c } 
		.s82 { fill: #aecfdd } 
		.s83 { fill: #575857 } 
		.s84 { fill: #abc8dc } 
		.s85 { fill: #f2f4f4 } 
		.s86 { fill: #4f5050 } 
		.s87 { fill: #494c51 } 
		.s88 { fill: #b0cfdf } 
		.s89 { fill: #cae0f0 } 
		.s90 { fill: #28393c } 
		.s91 { fill: #b2cfdd } 
		.s92 { fill: #f6f8f7 } 
		.s93 { fill: #b6d4e0 } 
		.s94 { fill: #d9dbde } 
		.s95 { fill: #acd3e4 } 
		.s96 { fill: #afd0dc } 
		.s97 { fill: #b1d0dc } 
		.s98 { fill: #303133 } 
		.s99 { fill: #dfdedf } 
		.s100 { fill: #e1e0e1 } 
		.s101 { fill: #aed2e1 } 
		.s102 { fill: #393e4a } 
		.s103 { fill: #b6d6e7 } 
		.s104 { fill: #3e4450 } 
		.s105 { fill: #a9c7d9 } 
		.s106 { fill: #b3d3e1 } 
		.s107 { fill: #31434c } 
		.s108 { fill: #a7bdc5 } 
		.s109 { fill: #a7cedb } 
		.s110 { fill: #353635 } 
		.s111 { fill: #a5c8d8 } 
		.s112 { fill: #b8d3df } 
		.s113 { fill: #abc3d2 } 
		.s114 { fill: #ecedee } 
		.s115 { fill: #e8f0ed } 
		.s116 { fill: #a5c3d7 } 
		.s117 { fill: #f4f4f4 } 
		.s118 { fill: #cae1e5 } 
		.s119 { fill: #a8d0dc } 
		.s120 { fill: #32434d } 
		.s121 { fill: #a4c3cb } 
		.s122 { fill: #ededee } 
		.s123 { fill: #2d3c49 } 
		.s124 { fill: #373938 } 
		.s125 { fill: #36404c } 
		.s126 { fill: #abd3e5 } 
		.s127 { fill: #cfe6f4 } 
		.s128 { fill: #314354 } 
		.s129 { fill: #394957 } 
		.s130 { fill: #bbd0df } 
		.s131 { fill: #3d4553 } 
		.s132 { fill: #a9c8d3 } 
		.s133 { fill: #434343 } 
		.s134 { fill: #555756 } 
		.s135 { fill: #505658 } 
		.s136 { fill: #aad1e8 } 
		.s137 { fill: #bcd7e5 } 
		.s138 { fill: #afd1d7 } 
		.s139 { fill: #36414d } 
		.s140 { fill: #3c454c } 
		.s141 { fill: #aacadc } 
		.s142 { fill: #a5c4d0 } 
		.s143 { fill: #3c4d58 } 
		.s144 { fill: #acd1e6 } 
		.s145 { fill: #384956 } 
		.s146 { fill: #3e4a48 } 
	</style>
	<path class="s0" d="m452.94 180.19c1.61 2.75 1.34 4.62 1.06 7.81-1.02 2.92-2.35 5.66-3.69 8.44-7.06 15.29-11.6 30.77-13.31 47.56q1.4 0.16 2.85 0.32c34.55 4.99 68.91 24.14 94.15 47.68q2.06 1.79 4.12 3.56c9.26 8.08 17.16 17.19 24.75 26.82q0.73 0.92 1.49 1.87c3.51 4.5 3.51 4.5 4.64 6.75q2.86 0.51 5.75 0.81c11.6 1.65 21.13 5.88 30.25 13.19 1.17 0.93 1.17 0.93 2.37 1.88 11.54 9.65 19.03 23.38 23.63 37.56q0.33 0.99 0.67 2c1.27 4.21 1.45 7.31 0.33 11.56-1.13 1.87-1.13 1.87-3 3-5.3 0.37-9.08-0.53-14-2.44-7.68-2.81-14.84-3.43-23-3.56 0.46 1.92 0.46 1.92 0.94 3.87 4.91 20.33 3.48 44.82-0.94 65.13-0.32 1.61-0.32 1.61-0.66 3.25-1.31 5.87-3.22 11.49-5.28 17.13q-0.36 0.99-0.73 2.02c-1.25 3.29-2.53 5.87-4.65 8.7-2.06 2.78-2.06 2.78-0.96 5.76 1.2 2.93 2.52 5.53 4.15 8.24q0.85 1.42 1.72 2.89 0.91 1.51 1.85 3.07c6.11 10.33 11.81 20.8 17.29 31.48q1.85 3.57 3.75 7.11c27.21 50.83 27.21 50.83 23.52 63.35-2.16 2.85-3.7 3.71-7.17 4.48-8.46 0.72-14.11-3.51-20.36-8.76-3.95-3.44-7.72-7.06-11.47-10.72q-0.9-0.88-1.83-1.78-2.78-2.73-5.55-5.47-0.83-0.83-1.69-1.68c-3.53-3.55-6.85-7.23-10.13-11.02-3.67-4.18-7.54-8.19-11.37-12.23-2.79-2.96-5.54-5.9-8.09-9.08-2.25-2.64-4.37-4.47-7.22-6.43q-1.19-0.83-2.42-1.7c-6.88-4.11-11.95-5.13-19.89-5.05-1.49 0.01-1.49 0.01-3.02 0.01-7.95 0.14-15.63 1.17-23.48 2.43-9.93 1.58-19.63 2.44-29.68 2.5q-1.76 0.03-3.57 0.05c-6.96-0.04-11.04-0.53-16.06-5.55-0.54-3.84-0.8-6.49 1.04-9.96 12.6-15.82 36.74-25.24 54.09-34.66q1.48-0.82 3.02-1.66c4.79-2.6 9.59-5.1 14.52-7.41q1.32-0.63 2.67-1.29 2.45-1.17 4.95-2.25c3.14-1.52 5.2-2.61 6.64-5.88 0.6-2.65 0.89-5.18 1.07-7.89 0.1-1.43 0.1-1.43 0.2-2.88 0.14-3.02 0.17-6.03 0.17-9.06q0.04-1.5 0.08-3.05c0.04-9.69-2.44-18.62-8.63-26.23-12.59-12.29-30.95-14.17-47.63-14.03q-1.72 0.01-3.48 0.01c-11.62 0.12-23.15 1.04-34.71 2.24 6.49 23.49 6.49 23.49 20.5 42.94 2.07 2.84 1.98 4.63 1.5 8.06-1.24 1.69-1.24 1.69-3 3-6.75 0.54-13.83-1.79-20.25-3.69q-1.36-0.4-2.77-0.81c-22.2-6.66-43.99-18.75-56.98-38.5q-0.97 0.09-1.97 0.18c-16.84 1.49-33.56 2.19-50.47 2.13q-1.72 0-3.5 0c-16.88-0.05-33.38-0.49-50.06-3.31q-1.62-0.26-3.29-0.52c-34.07-5.43-70.75-14.18-95.71-39.48q-0.95-0.96-1.94-1.94c-4.64-5-7.48-10.64-8.62-17.37 3.79-24.83 27.31-45.13 44.56-61.69q0.76-0.74 1.53-1.49c4.74-4.55 8.36-8.02 15.16-8.07q2.16 0.2 4.31 0.56-0.09-1.72-0.19-3.5c0.56-4.47 2.64-6.22 6.13-8.94 3.69-2.46 6.3-3.94 10.75-4 5.31-0.11 9.18-2.18 13.75-4.69q1.04-0.54 2.12-1.11c3.74-2.14 5.18-3.11 6.83-7.26 2.37-5.14 5.94-6.26 10.98-8.44q1.38-0.63 2.8-1.27c7.52-3.38 15.2-6.34 22.99-9.01 5.1-1.82 8.25-3.56 11.84-7.78q1.29-1.39 2.61-2.83 1.35-1.49 2.7-2.98 2.84-3.1 5.69-6.19 0.99-1.07 2-2.17c5.55-5.79 11.82-10.64 18.2-15.46q2.49-1.9 4.94-3.84c16.75-12.7 74.28-47.14 96.8-33.34z"/>
	<path class="s1" d="m452.94 180.19c1.61 2.75 1.34 4.62 1.06 7.81-1.02 2.92-2.35 5.66-3.69 8.44-7.06 15.29-11.6 30.77-13.31 47.56q1.4 0.16 2.85 0.32c34.55 4.99 68.91 24.14 94.15 47.68q2.06 1.79 4.12 3.56c9.26 8.08 17.16 17.19 24.75 26.82q0.73 0.92 1.49 1.87c3.51 4.5 3.51 4.5 4.64 6.75q2.86 0.51 5.75 0.81c11.6 1.65 21.13 5.88 30.25 13.19 1.17 0.93 1.17 0.93 2.37 1.88 11.54 9.65 19.03 23.38 23.63 37.56q0.33 0.99 0.67 2c1.27 4.21 1.45 7.31 0.33 11.56-1.13 1.87-1.13 1.87-3 3-5.3 0.37-9.08-0.53-14-2.44-7.68-2.81-14.84-3.43-23-3.56 0.46 1.92 0.46 1.92 0.94 3.87 4.91 20.33 3.48 44.82-0.94 65.13-0.32 1.61-0.32 1.61-0.66 3.25-1.31 5.87-3.22 11.49-5.28 17.13q-0.36 0.99-0.73 2.02c-1.25 3.29-2.53 5.87-4.65 8.7-2.06 2.78-2.06 2.78-0.96 5.76 1.2 2.93 2.52 5.53 4.15 8.24q0.85 1.42 1.72 2.89 0.91 1.51 1.85 3.07c6.11 10.33 11.81 20.8 17.29 31.48q1.85 3.57 3.75 7.11c27.21 50.83 27.21 50.83 23.52 63.35-2.16 2.85-3.7 3.71-7.17 4.48-8.46 0.72-14.11-3.51-20.36-8.76-3.95-3.44-7.72-7.06-11.47-10.72q-0.9-0.88-1.83-1.78-2.78-2.73-5.55-5.47-0.83-0.83-1.69-1.68c-3.53-3.55-6.85-7.23-10.13-11.02-3.67-4.18-7.54-8.19-11.37-12.23-2.79-2.96-5.54-5.9-8.09-9.08-2.25-2.64-4.37-4.47-7.22-6.43q-1.19-0.83-2.42-1.7c-6.88-4.11-11.95-5.13-19.89-5.05-1.49 0.01-1.49 0.01-3.02 0.01-7.95 0.14-15.63 1.17-23.48 2.43-9.93 1.58-19.63 2.44-29.68 2.5q-1.76 0.03-3.57 0.05c-6.96-0.04-11.04-0.53-16.06-5.55-0.54-3.84-0.8-6.49 1.04-9.96 12.6-15.82 36.74-25.24 54.09-34.66q1.48-0.82 3.02-1.66c4.79-2.6 9.59-5.1 14.52-7.41q1.32-0.63 2.67-1.29 2.45-1.17 4.95-2.25c3.14-1.52 5.2-2.61 6.64-5.88 0.6-2.65 0.89-5.18 1.07-7.89 0.1-1.43 0.1-1.43 0.2-2.88 0.14-3.02 0.17-6.03 0.17-9.06q0.04-1.5 0.08-3.05c0.04-9.69-2.44-18.62-8.63-26.23-12.59-12.29-30.95-14.17-47.63-14.03q-1.72 0.01-3.48 0.01c-11.62 0.12-23.15 1.04-34.71 2.24 6.49 23.49 6.49 23.49 20.5 42.94 2.07 2.84 1.98 4.63 1.5 8.06-1.24 1.69-1.24 1.69-3 3-6.75 0.54-13.83-1.79-20.25-3.69q-1.36-0.4-2.77-0.81c-22.2-6.66-43.99-18.75-56.98-38.5q-0.97 0.09-1.97 0.18c-16.84 1.49-33.56 2.19-50.47 2.13q-1.72 0-3.5 0c-16.88-0.05-33.38-0.49-50.06-3.31q-1.62-0.26-3.29-0.52c-34.07-5.43-70.75-14.18-95.71-39.48q-0.95-0.96-1.94-1.94c-4.64-5-7.48-10.64-8.62-17.37 4.21-27.59 32.93-51.75 52.96-69.21 3.4-1.93 5.76-1.86 9.6-1.48 2.75 1.91 3.81 3.01 4.44 6.31-0.64 3.9-3.05 5.63-5.94 8.06q-0.82 0.73-1.67 1.48-2.4 2.09-4.83 4.15c-25.11 21.42-25.11 21.42-39.69 50.12 2.2 9.21 11.62 16.43 19.3 21.17 37.53 22.24 84.6 27.95 127.47 27.84q3.82-0.01 7.65 0.01c8.2 0 16.31-0.14 24.49-0.92 4.59-0.36 9.18-0.3 13.78-0.22q-0.41-1.1-0.84-2.23-0.54-1.46-1.1-2.96-0.53-1.43-1.09-2.92c-1.54-4.58-2.12-8.74-2.16-13.58q-0.02-1.42-0.04-2.88c0.23-2.43 0.23-2.43 2.23-4.43 3.5 0.19 3.5 0.19 7 1 1.97 2.95 2.39 4.81 2.88 8.24 2.66 18.18 12.94 33.09 27.55 44 11.04 7.57 23.47 13.67 36.57 16.76-0.53-0.9-0.53-0.9-1.07-1.82-8.98-16.49-12.71-35.08-15.51-53.48q-0.62-3.94-1.33-7.86c-0.21-1.22-0.21-1.22-0.43-2.45q-0.39-2.23-0.8-4.46c-0.81-4.74-1.13-9.14-0.86-13.93 2-2 2-2 4.94-2.38 3.06 0.38 3.06 0.38 4.68 2.05 1.61 2.72 2.07 4.88 2.55 8.01q0.25 1.63 0.52 3.31c0.24 1.71 0.24 1.71 0.5 3.45q0.26 1.69 0.53 3.43c0.73 4.75 1.39 9.31 1.28 14.13q0.95-0.18 1.92-0.37c29.24-5.25 63.26-8.43 89.33 8.62 12.55 9.3 17.68 20.41 20.41 35.43 1.87 12.7 1.41 29.79-4.66 41.32-4.01 3.94-8.93 6.09-13.94 8.5-15.12 7.42-29.81 15.6-44.44 23.94q-1.26 0.72-2.57 1.46-7.63 4.38-15.05 9.1c8.92-0.33 17.64-0.95 26.44-2.5q1.14-0.2 2.32-0.41 2.18-0.38 4.35-0.76c3.97-0.69 7.87-1.14 11.89-1.33q0.97-0.05 1.97-0.1c17.47-0.76 30.44 3.18 43.72 14.97 3.63 3.42 7.01 6.91 10.22 10.72 3.02 3.49 6.18 6.85 9.34 10.22q0.92 0.99 1.86 2c3.22 3.46 3.22 3.46 6.58 6.77 1.31 1.42 1.31 1.42 1.31 3.42q1.48 0.49 3 1c1.47 1.5 1.47 1.5 3.06 3.44 5.75 6.76 11.92 13.11 18.94 18.56-2.35-7.76-5.64-14.91-9.19-22.19q-0.45-0.92-0.91-1.88c-9.24-19.03-18.97-37.94-30.08-55.95-2.29-3.76-4.4-7.6-6.47-11.48q-1.36-2.52-2.83-4.96c-4.63-7.79-4.63-7.79-3.52-12.54 1.35-2.01 2.83-3.87 4.35-5.76 11.95-16.19 13.01-40 12.91-59.39q-0.01-3.62 0.01-7.24c0.01-8.12-0.34-15.9-1.8-23.92-1.7-9.78-1.7-9.78 1.09-14.13 9.57-6.13 22.99-4.21 33.56-2q0.93 0.22 1.88 0.44c-8.35-18.11-17.89-28.87-37-36q0.74 1.51 1.5 3.06c1.6 3.76 1.97 6.83 1.5 10.94-1.06 1.94-1.06 1.94-3 3-3.44 0.5-3.44 0.5-7 0-3.11-3.26-4.76-6.44-6.31-10.63-15.36-38.12-54.96-67.48-91.41-83.41-9.35-3.92-18.99-7.06-28.74-9.81-1.63-0.46-1.63-0.46-3.3-0.93q-3.18-0.89-6.37-1.74-1.44-0.39-2.93-0.8-1.28-0.34-2.6-0.69c-2.84-1.2-4.38-2.64-6.34-4.99-3.22-17.34 4.91-40.28 12-56-17.76 3.09-34.2 9.43-50 18q-1.74 0.92-3.54 1.86c-15.43 8.42-29.25 19.53-41.46 32.14 1.16-0.22 1.16-0.22 2.34-0.44 15.03-2.68 15.03-2.68 20.16-0.5 1.5 1.94 1.5 1.94 2 5.38-0.5 3.56-0.5 3.56-1.83 5.69-4.24 2.97-8.79 2.91-13.86 3.37-22.59 2.47-42.53 9.29-63.04 19.06-3.71 1.73-6.65 3-10.77 2.44-1.81-1.06-1.81-1.06-3-3-0.38-3.5-0.38-3.5 0-7 1.93-2.38 3.97-3.67 6.71-4.98q1.11-0.53 2.24-1.08c1.2-0.56 1.2-0.56 2.42-1.13q1.24-0.58 2.52-1.19c7.23-3.35 14.63-6.2 22.17-8.79 5.12-1.84 8.34-3.58 11.94-7.83q1.29-1.39 2.61-2.83 1.35-1.49 2.7-2.98 2.84-3.1 5.69-6.19 0.98-1.07 2-2.17c5.55-5.79 11.82-10.64 18.2-15.46q2.49-1.9 4.94-3.84c16.75-12.7 74.28-47.14 96.8-33.34z"/>
	<path class="s2" d="m229 303c2.75 1.91 3.81 3.01 4.44 6.31-0.64 3.9-3.05 5.63-5.94 8.07q-0.82 0.72-1.67 1.47-2.4 2.09-4.83 4.15c-25.11 21.42-25.11 21.42-39.69 50.13 2.2 9.2 11.62 16.42 19.3 21.16 14.6 8.65 30.23 13.81 46.39 18.71q0 0.99 0 2 0.99 0 2 0 0.97 2.16 1.94 4.31c0.54 1.2 0.54 1.2 1.09 2.43 0.97 2.26 0.97 2.26 1.97 5.26-6.74 0.26-12.3-0.52-18.75-2.44q-1.35-0.39-2.73-0.8c-20.74-6.32-40.19-15.22-55.52-30.76q-0.95-0.96-1.94-1.94c-4.64-5-7.48-10.64-8.62-17.37 4.21-27.59 32.93-51.75 52.96-69.21 3.4-1.93 5.76-1.86 9.6-1.48z"/>
	<path class="s3" d="m523 399q0 0.99 0 2 2.96 0 6 0c0.5 1.49 0.5 1.49 1 3 2.21 1.31 4.48 2.19 6.88 3.13 4.14 2.48 6.65 5.74 9.12 9.87q0 0.99 0 2 0.99 0 2 0 1.21 2.43 2.38 4.88 0.65 1.35 1.33 2.74c3.21 8.43 3.61 16.74 3.54 25.69 0.01 1.59 0.01 1.59 0.02 3.21q0 1.52 0 3.09-0.01 1.37-0.01 2.78c-0.28 2.84-1.08 5.02-2.26 7.61q-0.49 0-1 0-0.15-1.8-0.3-3.66c-1.46-16.6-3.76-30.93-16.26-43.03-8.8-7.2-19.4-11.14-30.44-13.31q-1.19-0.3-2.42-0.62c-20.05-4.65-42.38-0.53-62.58 1.62q-0.5-3.12-0.99-6.24-0.27-1.73-0.55-3.51c-1.23-8.72-1.23-8.72 0.54-12.25 27.25-6.69 59.82-3.41 84 11z"/>
	<path class="s4" d="m429.94 375.63c3.06 0.37 3.06 0.37 4.68 2.04 1.61 2.72 2.07 4.88 2.55 8.01 0.25 1.64 0.25 1.64 0.52 3.31q0.24 1.7 0.5 3.45 0.26 1.69 0.53 3.43c0.73 4.75 1.39 9.31 1.28 14.13q0.95-0.18 1.92-0.37c29.34-5.26 64.01-8.65 89.83 9.18q2.14 1.58 4.25 3.19c-0.99 2.97-0.99 2.97-2 6-9.12 0.56-15.53 0.33-23.87-3.7-9.01-3.74-19.32-3.63-28.94-3.55q-1.72 0.01-3.48 0.01c-11.62 0.12-23.15 1.04-34.71 2.24q0.49 2.46 1 5-1.85 0.03-3.75 0.06-1.04 0.02-2.11 0.04c-2.18-0.1-4.04-0.54-6.14-1.1q-1.74-9.96-3.47-19.93-0.72-4.16-1.46-8.32-0.41-2.35-0.82-4.69-0.19-1.04-0.39-2.12c-0.81-4.74-1.13-9.15-0.86-13.94 2-2 2-2 4.94-2.37z"/>
	<path class="s5" d="m369 401q0.69 2.47 1.38 4.94 0.38 1.37 0.77 2.77c1.05 4.08 1.96 8.18 2.85 12.29-31.74 3.58-66.65 4.89-98-2q0-0.99 0-2 2.46 0 5 0-0.07-0.99-0.14-2.01c-0.3-7.3-0.3-7.3 2.14-11.12q0.99-0.92 2-1.87 0.99 0.49 2 1-0.7 0.82-1.43 1.67c-1.75 2.6-2.23 4.51-2.76 7.58q-0.23 1.33-0.48 2.7-0.16 1.01-0.33 2.05 1.78-0.22 3.62-0.44 2.41-0.28 4.82-0.56c1.17-0.14 1.17-0.14 2.37-0.29 4.01-0.46 7.91-0.75 11.95-0.69 3.44 0.04 6.3-0.34 9.62-1.33 5.32-1.46 10.6-2.34 16.06-3.13 10.88-1.61 20.9-4.77 31.12-8.83 2.6-0.78 4.74-0.87 7.44-0.73z"/>
	<path class="s6" d="m281.56 380c3.07 1.26 4.55 2.24 6.44 5-0.06 3.63-0.06 3.63-1 7-3.09 2.06-3.71 2.24-7.19 2.13-1.88-0.07-1.88-0.07-3.81-0.13 0.05 1.03 0.05 1.03 0.11 2.08q0.23 4.65 0.45 9.29 0.09 1.62 0.17 3.28 0.07 1.54 0.15 3.12 0.07 1.43 0.14 2.89c-0.02 2.34-0.02 2.34-1.02 4.34-2.97-0.33-5.94-0.66-9-1 0.99-0.5 0.99-0.5 2-1 0-8.58 0-17.16 0-26q1.97 0 4 0 0.09-1.6 0.19-3.25c0.81-3.75 0.81-3.75 3.06-6.25 2.75-1.5 2.75-1.5 5.31-1.5z"/>
	<path class="s7" d="m251 287c2 1.56 2 1.56 3 4 0.31 3.31 0.31 3.31-1 7-4.72 4.45-9.43 7.51-16 8-3.23-2.04-3.88-3.58-4.94-7.25 1.35-5.4 4.51-7.2 9.04-10.2 3.86-2.06 5.66-2.61 9.9-1.55z"/>
	<path class="s8" d="m285 402q0.99 0.49 2 1-0.7 0.82-1.43 1.67c-1.75 2.6-2.23 4.51-2.76 7.58q-0.23 1.33-0.48 2.7-0.16 1.01-0.33 2.05 1.78-0.22 3.62-0.44 2.41-0.28 4.82-0.56c1.17-0.14 1.17-0.14 2.37-0.29 4.77-0.55 9.41-0.8 14.21-0.7 2.72-0.02 5.32-0.46 7.98-1.01 0.5 2.48 0.5 2.48 1 5 2.97 0.33 5.94 0.66 9 1q0 0.99 0 2c2.31 0 4.62 0 7 0q0 0.49 0 1c-11.44 0.22-22.77 0.03-34.19-0.88q-1.53-0.11-3.1-0.23c-6.35-0.54-12.49-1.49-18.71-2.89q0-0.99 0-2 2.46 0 5 0-0.07-0.99-0.14-2.01c-0.3-7.3-0.3-7.3 2.14-11.12q0.99-0.92 2-1.87z"/>
	<path class="s9" d="m247 413q6.19 1.17 12.38 2.38c1.76 0.33 1.76 0.33 3.56 0.67q1.67 0.32 3.4 0.66 1.54 0.3 3.14 0.6c2.52 0.69 2.52 0.69 4.52 2.69-1.95 4.3-3.29 7.13-7.75 9-4.4 1.34-7.77 0.88-12.25 0q-1.48-0.28-3-0.56-0.99-0.22-2-0.44 0-0.49 0-1 2.46 0 5 0-0.95-1.29-1.94-2.63c-2.04-3.33-2.69-5.53-3.06-9.37q-0.99 0-2 0 0-0.99 0-2z"/>
	<path class="s10" d="m472 406q5.37-0.08 10.75-0.13 1.52-0.02 3.08-0.05 1.46-0.01 2.97-0.02 1.34-0.01 2.73-0.03c2.61 0.24 4.23 0.91 6.47 2.23q-1.97 0-4 0c0 3.96 0 7.92 0 12-5.61 0-11.22 0-17 0-0.13-9.75-0.13-9.75 1-12-2.97-0.5-2.97-0.5-6-1q0-0.49 0-1z"/>
	<path class="s11" d="m514 411c5.09 0.52 8.91 2.31 13.25 4.88q0.93 0.52 1.89 1.06c3.1 1.8 4.84 3.03 6.86 6.06-0.88 2.69-0.88 2.69-2 5q-3.69 0.08-7.38 0.13c-1.04 0.02-1.04 0.02-2.11 0.05-1.84 0.01-3.68-0.08-5.51-0.18q-0.99-0.99-2-2 0-0.99 0-2-0.99-0.99-2-2c-1.33-3.59-1.07-7.21-1-11z"/>
	<path class="s12" d="m354 358c2.25 0 2.25 0 5 1 1.98 2.15 3.52 4.49 5 7q0.55 0.92 1.13 1.87c2.32 5.65 1.5 13.1-0.32 18.82-1.81 3.31-1.81 3.31-4.43 4.37-2.38-0.06-2.38-0.06-3.38-1.06q0.36-2.78 0.72-5.55c1.25-9.16 1.25-9.16-2.22-17.32-0.68-0.81-0.68-0.81-1.38-1.63-1.12-1.5-1.12-1.5-1.5-4.38 0.38-2.12 0.38-2.12 1.38-3.12z"/>
	<path class="s13" d="m323 365c3.29 0.12 4.23 1.23 6.56 3.63 4.5 5.87 5.98 11.31 5.81 18.64-0.57 4.2-2.19 7.11-4.37 10.73q-2.46-0.49-5-1c-0.95-2.56-1.16-3.64-0.06-6.19 1.51-4 1.79-7.58 1.06-11.81-1.14-2.22-2.45-4.17-3.88-6.21-1.47-2.35-1.61-4.08-1.12-6.79q0.49-0.49 1-1z"/>
	<path class="s14" d="m338 362c2.63-0.13 2.63-0.13 6 1 5.08 5.17 6.42 10.64 6.56 17.75-0.08 5.25-0.94 8.7-3.56 13.25q-2.46 0-5 0c-1.2-4.19-0.6-6.05 1-10 0.68-5.98-0.87-10.03-4-15q-0.99-0.99-2-2c0.38-2.63 0.38-2.63 1-5z"/>
	<path class="s15" d="m369 401q0.69 2.47 1.38 4.94 0.38 1.37 0.77 2.77c1.05 4.07 1.94 8.19 2.85 12.29-9.4 0.5-9.4 0.5-19 1q0-0.49 0-1 2.46 0 5 0-0.06-1.91-0.13-3.87c0.01-5.13 0.55-10.23 2.13-15.13 2.46-1.23 4.28-1.07 7-1z"/>
	<path class="s16" d="m429.94 375.63c3.06 0.37 3.06 0.37 4.87 2 2.61 5.21 2.29 10.68 2.19 16.37-2.31 0-4.62 0-7 0 0 2.97 0 5.94 0 9q-0.99-0.49-2-1c-0.65-2.53-1.17-4.99-1.62-7.56q-0.21-1.03-0.41-2.1c-0.89-4.84-1.26-9.41-0.97-14.34 2-2 2-2 4.94-2.37z"/>
	<path class="s17" d="m488 400c1.58 0.26 1.58 0.26 3.18 0.52q4.41 0.72 8.82 1.48 0 0.99 0 2 0.95 0.15 1.94 0.31 1.01 0.34 2.06 0.69c0.5 1.49 0.5 1.49 1 3-3.9 0.07-7.24-0.05-11-1q-2.16-0.21-4.33-0.32c-1.2-0.06-1.2-0.06-2.42-0.12-1.24-0.06-1.24-0.06-2.5-0.12-1.26-0.07-1.26-0.07-2.55-0.13q-3.1-0.16-6.2-0.31 0-0.99 0-2-1.97 0.49-4 1c4.15-6.56 8.94-6.25 16-5z"/>
	<path class="s18" d="m281.56 380c3.07 1.26 4.55 2.24 6.44 5-0.06 3.63-0.06 3.63-1 7-3.69 2.46-5.63 2.39-10 2-1.94-1.06-1.94-1.06-3-3-0.5-3.44-0.5-3.44 0-7 2.46-2.81 3.78-4 7.56-4z"/>
	<path class="s19" d="m331 411c0.66 3.96 1.32 7.92 2 12-2.64-0.33-5.28-0.66-8-1q0-0.99 0-2c-2.97 0-5.94 0-9 0-1.04-3.13-0.93-3.99 0-7q3.19-0.5 6.38-1 1.76-0.28 3.58-0.56c3.04-0.44 3.04-0.44 5.04-0.44z"/>
	<path class="s20" d="m437 392q0.49 0 1 0c0.33 3.3 0.66 6.6 1 10q-1.97 0-4 0 0-2.95 0-6-1.48 0-3 0 0.13 5.84 0.31 11.69 0.04 1.64 0.07 3.34 0.05 1.59 0.11 3.23 0.04 1.46 0.08 2.97c0.5 3.21 1.51 5.16 3.43 7.77 2.04 0.6 2.04 0.6 4.19 0.31 1.88-0.15 1.88-0.15 3.81-0.31q0 1.48 0 3-1.85 0.03-3.75 0.06-1.04 0.02-2.11 0.04c-2.18-0.1-4.04-0.54-6.14-1.1q-1.1-5.43-2.13-10.87-0.3-1.52-0.62-3.08c-1.28-6.87-1.17-12.32 0.75-19.05 2.31 0 4.62 0 7 0q0-0.99 0-2z"/>
	<path class="s21" d="m432 396q1.48 0 3 0 0 2.95 0 6 1.97 0 4 0 0 1.97 0 4-1.48 0.49-3 1-0.12 2.62-0.19 5.25-0.05 1.45-0.1 2.95c0.33 3.23 1.03 4.51 3.29 6.8q1.48 0.49 3 1 0.49 1.48 1 3c-3.25 0.38-3.25 0.38-7 0-3.7-3.75-4.26-6.61-4.39-11.84q0.04-3.27 0.14-6.54 0.03-1.66 0.05-3.38 0.08-4.12 0.2-8.24z"/>
	<path class="s22" d="m439 405q0.49 1.48 1 3-1.48 0-3 0c0.33 3.96 0.66 7.92 1 12q2.46 0 5 0c0.99-2.64 1.98-5.28 3-8q2.46 0.49 5 1c1.13 6.75 1.13 6.75 0 9-2.06 0.39-4.09 0.51-6.19 0.66q-0.89 0.17-1.81 0.34-0.49 0.99-1 2 0-0.99 0-2-0.89-0.12-1.81-0.25c-2.91-1-3.63-2.13-5.19-4.75-0.29-2.8-0.29-2.8-0.19-5.75q0.04-1.47 0.08-2.98 0.06-1.12 0.11-2.27 1.97-0.99 4-2z"/>
	<path class="s23" d="m371 392c3.5 0.19 3.5 0.19 7 1 2.11 3.16 2.34 4.51 2.63 8.19q0.11 1.34 0.22 2.73 0.07 1.02 0.15 2.08-1.05-0.71-2.13-1.44c-3.03-1.65-5.46-2.16-8.87-2.56q-0.49 1.48-1 3-0.08-2.69-0.13-5.38-0.03-1.48-0.07-3.02c0.2-2.6 0.2-2.6 2.2-4.6z"/>
	<path class="s24" d="m348 407c2.93 3.25 3.37 5.35 3.25 9.69-0.02 1.46-0.02 1.46-0.05 2.95-0.2 2.36-0.2 2.36-1.2 3.36q-4.28 0.11-8.56 0.06-1.21 0-2.45-0.01-2.99-0.02-5.99-0.05c-1.85-4.21-2.18-7.39-2-12q0.49 0 1 0 0 2.95 0 6c0.9 0.15 0.9 0.15 1.81 0.31 2.19 0.69 2.19 0.69 3.44 2.19 2.86 2.45 6.05 2.2 9.75 2.5q-0.22-1.13-0.44-2.3-0.27-1.48-0.56-3.01-0.28-1.47-0.56-2.99c-0.44-2.7-0.44-2.7-0.44-5.7q1.48-0.49 3-1z"/>
	<path class="s25" d="m508 410q2.95 0 6 0c0.16 1.23 0.16 1.23 0.33 2.48 0.24 1.62 0.24 1.62 0.48 3.27q0.23 1.59 0.46 3.23c0.74 3.07 1.66 4.68 3.73 7.02-4.1-0.57-7.07-1.43-11-3 0-4.29 0-8.58 0-13z"/>
	<path class="s26" d="m327 374c2.68 2.68 2.39 4.39 2.63 8.13q0.11 1.63 0.22 3.32c0.08 1.26 0.08 1.26 0.15 2.55q1.48 0 3 0c0.33-2.97 0.66-5.94 1-9q0.49 0 1 0c0.5 7.58-0.05 12.46-4 19q-2.46-0.49-5-1c-0.95-2.56-1.16-3.64-0.06-6.19 1.69-4.48 1.69-9.39 0.49-14.02q-0.21-0.88-0.43-1.79 0.49-0.49 1-1z"/>
	<path class="s27" d="m247 413c2.31 0.33 4.62 0.66 7 1q-0.55 0.8-1.13 1.63c-1.15 2.47-1.15 2.47-0.18 5.56q0.64 1.38 1.31 2.81c3.01 1 5.54 1.3 8.69 1.56q1.48 0.13 3.01 0.26 1.13 0.09 2.3 0.18 0.49-1.48 1-3 0.99 0 2 0 0.49-1.97 1-4 0.99 0.49 2 1c-1.95 4.3-3.29 7.13-7.75 9-4.4 1.34-7.77 0.88-12.25 0q-1.48-0.28-3-0.56-0.99-0.22-2-0.44 0-0.49 0-1 2.46 0 5 0-0.95-1.29-1.94-2.62c-2.04-3.34-2.69-5.54-3.06-9.38q-0.99 0-2 0 0-0.99 0-2z"/>
	<path class="s28" d="m465 407c0 4.29 0 8.58 0 13q0.99 0.49 2 1c-2.97 0-5.94 0-9 0 0-4.29 0-8.58 0-13 2-1 2-1 7-1z"/>
	<path class="s29" d="m274 391c3 3 3 3 3.36 5.42q-0.02 1.4-0.03 2.83-0.01 1.52-0.02 3.09-0.03 1.59-0.06 3.22-0.01 1.59-0.02 3.23c-0.08 7.9-0.08 7.9-1.23 10.21-2.97-0.33-5.94-0.66-9-1q0.99-0.49 2-1c0-3.96 0-7.92 0-12q0.99-0.49 2-1 0.99-1.97 2-4c0.33 5.28 0.66 10.56 1 16 0-8.25 0-16.5 0-25z"/>
	<path class="s30" d="m371 406c3.3 0.57 5.04 1.24 7 4 0.32 2.77 0.51 5.36 0.56 8.13 0.06 2.65 0.21 5.22 0.44 7.87q0.99 0.49 2 1c0-6.27 0-12.54 0-19 3.59 7.18 4.5 11.35 2 19-1 1-1 1-3.56 1.06q-1.2-0.03-2.44-0.06c-1.65-3.31-1.1-6.99-1.06-10.63q0-1.19 0.01-2.42 0.02-2.98 0.05-5.95-2.46-0.49-5-1-0.49 0.99-1 2 0.49-1.97 1-4z"/>
	<path class="s31" d="m319 401c1.76 3.09 2 4.23 2 8q-0.99 0-2 0 0 0.99 0 2-0.99 0-2 0c0-2.31 0-4.62 0-7q-0.49 0.99-1 2c-2.04 0.63-4.09 1.02-6.19 1.44-0.89 0.28-0.89 0.28-1.81 0.56q-0.49 0.99-1 2-1.48-0.49-3-1 0.49 2.95 1 6-1.97 0-4 0c0.26-4.4 0.56-6.5 3.5-9.88 1.24-1.05 1.24-1.05 2.5-2.12q0.49-0.49 1-1c2.59-0.07 5.16 0 7.75 0.06 2.22 0.2 2.22 0.2 3.25-1.06z"/>
	<path class="s32" d="m471 375q-0.49 1.48-1 3-0.99-0.19-2.01-0.39c-5.86-1.01-5.86-1.01-11.05 1.52-1.88 2.79-2.66 4.55-2.94 7.87q-1.97 0-4 0c0.41-5.27 1.23-8.23 5-12 4.9-3.55 10.84-2.5 16 0z"/>
	<path class="s33" d="m546 419q0.99 0 2 0c1.32 3.3 2.64 6.6 4 10-2.97 0.66-5.94 1.32-9 2-4.02-5.36-4.02-5.36-3.94-8.31 0.94-1.69 0.94-1.69 3.94-2.69q0.49 0.99 1 2 0.99-1.48 2-3z"/>
	<path class="s34" d="m516 412q1.48 0 3 0c0.66 2.97 1.32 5.94 2 9 5.94 0.99 5.94 0.99 12 2q-0.49 1.97-1 4c-9.09 0.46-9.09 0.46-13-3-2.2-4.09-3.42-7.34-3-12z"/>
	<path class="s35" d="m384 408q2.46 0 5 0c1.46 2.93 1.43 5.75 1.69 9q0.16 1.88 0.32 3.81c-0.01 3.19-0.01 3.19-2.01 5.19q-1.84-3.36-3.63-6.75-0.52-0.95-1.06-1.92c-0.97-1.88-0.97-1.88-2.31-5.33 0.79-2.45 0.79-2.45 2-4z"/>
	<path class="s36" d="m340 402c3.05-0.07 5.86-0.02 8.88 0.5 3.77 0.6 7.3 0.57 11.12 0.5-7.71 4.01-15.32 6.43-24 7 0.81-2.44 0.81-2.44 2-5q1.48-0.49 3-1-0.49-0.99-1-2z"/>
	<path class="s37" d="m459 399c2.63-0.19 2.63-0.19 5 0q0.49 1.48 1 3 0.99 0 2 0 0 1.97 0 4 2.46 0 5 0 0 0.49 0 1c-8.42 0.5-8.42 0.5-17 1 2-6 2-6 4-9z"/>
	<path class="s38" d="m609 586c2.61 2.61 3.76 5.6 5.19 8.94q0.42 0.94 0.86 1.92c2.07 4.78 2.07 4.78 0.95 8.14-3.96-3.63-7.92-7.26-12-11q1.97-0.49 4-1-0.03-1.45-0.06-2.94c0.06-3.06 0.06-3.06 1.06-4.06z"/>
	<path class="s39" d="m494 408q2.46 0 5 0c1.32 2.64 1.1 4.68 1.06 7.63q-0.01 1.49-0.02 3.03-0.02 1.15-0.04 2.34-2.95 0-6 0c0-4.29 0-8.58 0-13z"/>
	<path class="s40" d="m480 408q2.46 0 5 0c1.2 2.41 1.1 3.95 1.06 6.63q-0.01 1.21-0.02 2.47-0.02 0.94-0.04 1.9c-2.31 0-4.62 0-7 0q-0.04-2.19-0.06-4.38-0.02-1.21-0.04-2.46c0.1-2.16 0.1-2.16 1.1-4.16z"/>
	<path class="s41" d="m289.63 401.88q1.16 0.06 2.37 0.12 0 1.97 0 4-0.92 0.25-1.87 0.5c-3.41 2.4-3.36 5.5-4.13 9.5q-1.97 0.49-4 1c-0.32-5.26 0.27-8.48 3-13 2-2 2-2 4.63-2.12z"/>
	<path class="s42" d="m467 377c3.29 2 4.71 3.03 5.81 6.75q0.09 1.11 0.19 2.25-0.99 0-2 0-0.37-0.92-0.75-1.88c-1.52-2.59-2.38-3.24-5.25-4.12-3.13-0.09-3.13-0.09-6 1-1.23 2.46-1.23 2.46-2 5q-1.48 0.49-3 1c0.23-4.06 0.45-6.36 3.13-9.5 3.83-2 5.74-1.68 9.87-0.5z"/>
	<path class="s43" d="m255 415c5.94 0.99 5.94 0.99 12 2q0 1.97 0 4c-3 2-3 2-6 1.81-3.04-0.82-4.27-1.22-6-3.81q0-1.97 0-4z"/>
	<path class="s44" d="m285 402q0.99 0.49 2 1-0.7 0.82-1.43 1.67c-1.75 2.6-2.23 4.51-2.76 7.58q-0.23 1.33-0.48 2.7-0.16 1.01-0.33 2.05c2.64 0 5.28 0 8 0q-0.49 1.48-1 3 2.46 0 5 0 0 0.49 0 1c-6.28 0.23-11.88-0.6-18-2q0-0.99 0-2 2.46 0 5 0-0.07-0.99-0.14-2.01c-0.3-7.3-0.3-7.3 2.14-11.12q0.99-0.92 2-1.87z"/>
	<path class="s45" d="m395 407c0.33 6.27 0.66 12.54 1 19q-1.97 0.49-4 1c-0.33-6.27-0.66-12.54-1-19 2-1 2-1 4-1z"/>
	<path class="s46" d="m499 421c4.95 0.99 4.95 0.99 10 2q-0.49 2.95-1 6c-5.75 1.13-5.75 1.13-8 0q0.49-2.46 1-5-0.99-0.49-2-1 0-0.99 0-2z"/>
	<path class="s47" d="m332 423c4.29 0 8.58 0 13 0q0.49 1.48 1 3-0.49 0.99-1 2c-7.26 0.62-7.26 0.62-11-2.5q-0.99-1.23-2-2.5z"/>
	<path class="s48" d="m449 403q0.99 0.49 2 1 0.99-0.49 2-1-0.49 2.95-1 6c-5.94 0.5-5.94 0.5-12 1q0-2.46 0-5c2.97 0 5.94 0 9 0q0-0.99 0-2z"/>
	<path class="s49" d="m487 407q2.46 0 5 0c0 4.29 0 8.58 0 13q-1.97 0-4 0c-0.33-4.29-0.66-8.58-1-13z"/>
	<path class="s50" d="m472 406q5.37-0.08 10.75-0.13 1.52-0.02 3.08-0.05 1.46-0.01 2.97-0.02 1.34-0.01 2.73-0.03c2.61 0.24 4.23 0.91 6.47 2.23q-1.97 0-4 0c0 3.96 0 7.92 0 12q-0.99 0-2 0c0-4.29 0-8.58 0-13-6.6 0-13.2 0-20 0q0-0.49 0-1z"/>
	<path class="s51" d="m281 420c2.31 0.33 4.62 0.66 7 1-0.33 2.31-0.66 4.62-1 7q-2.5 0.06-5 0c-1-1-1-1-1.06-4.56q0.03-1.7 0.06-3.44z"/>
	<path class="s52" d="m288 385q0.49 0 1 0c0.11 4.44-0.3 8.61-1 13q1.48 0.99 3 2c-1.98 0.66-3.96 1.32-6 2q-0.49-1.97-1-4 0.99 0 2 0-0.49-0.99-1-2c-2.31 0-4.62 0-7 0q0-0.99 0-2c2.64-0.66 5.28-1.32 8-2 0.66-2.31 1.32-4.62 2-7z"/>
	<path class="s53" d="m429.94 375.63c3.06 0.37 3.06 0.37 4.94 2 1.39 2.94 1.34 5.15 1.12 8.37-0.99 0.5-0.99 0.5-2 1-0.33-2.64-0.66-5.28-1-8q-2.46 0.49-5 1-0.18 1.2-0.37 2.44-0.31 1.26-0.63 2.56c-0.99 0.5-0.99 0.5-2 1-0.2-6.05-0.2-6.05 0-8 2-2 2-2 4.94-2.37z"/>
	<path class="s54" d="m369 421c-0.88 5.88-0.88 5.88-2 7q-2.5 0.06-5 0-0.49-2.95-1-6c2.71-1.35 5.01-1.07 8-1z"/>
	<path class="s55" d="m314 417q0.99 0.49 2 1 0 0.49 0 1c2.97 0.33 5.94 0.66 9 1q0 0.99 0 2c2.31 0 4.62 0 7 0q0 0.49 0 1c-6.93 0-13.86 0-21 0q0.49-2.46 1-5 0.99-0.49 2-1z"/>
	<path class="s56" d="m492 402c2.64 0 5.28 0 8 0q0 0.99 0 2 0.95 0.15 1.94 0.31 1.01 0.34 2.06 0.69 0.49 1.48 1 3c-7.43 0.14-7.43 0.14-11-1q0-0.99 0-2 0.99 0 2 0 0-0.99 0-2-1.97-0.49-4-1z"/>
	<path class="s57" d="m359 374q0.49 0 1 0 0.33 2.62 0.63 5.25 0.17 1.45 0.35 2.95c0.02 2.93-0.45 4.35-1.98 6.8q1.48 0 3 0 0.49-2.95 1-6 0.99 0.49 2 1c-0.66 1.98-1.32 3.96-2 6q-2.49 0.57-5 1-0.49-0.49-1-1 0.43-4.01 1-8 0.29-2.25 0.56-4.5 0.22-1.72 0.44-3.5z"/>
	<path class="s58" d="m331 411q0.49 0 1 0 0 2.95 0 6 0.89 0.15 1.81 0.31c2.19 0.69 2.19 0.69 3.47 2.19 2.4 2.09 4.27 2 7.41 2.19q1.48 0.1 3.01 0.2c1.14 0.05 1.14 0.05 2.3 0.11q0 0.49 0 1c-5.61 0-11.22 0-17 0-1.87-4.69-2.19-7.11-2-12z"/>
	<path class="s59" d="m412 408q0.49 0 1 0 0.49 2.46 1 5 0.49 0 1 0 0.12 2.19 0.19 4.38 0.05 1.21 0.1 2.46-0.14 1.06-0.29 2.16c-3.98 2.65-7.31 2-12 2q0.49-0.99 1-2 3.48-0.61 7-1c0.33-4.29 0.66-8.58 1-13z"/>
	<path class="s60" d="m426 399q0.99-0.49 2-1c0.33 3.3 0.66 6.6 1 10q-1.97-0.49-4-1c0-2.31 0-4.62 0-7q-2.41 0.43-4.81 0.88-1.34 0.24-2.71 0.49c-2.71 0.54-2.71 0.54-5.48 2.63 0.63-1.88 0.63-1.88 2-4 4.41-2.1 7.3-1.96 12-1z"/>
	<path class="s61" d="m290 416c2.97 0 5.94 0 9 0q0.49 2.46 1 5c-3.63-0.33-7.26-0.66-11-1q0.49-1.97 1-4z"/>
	<path class="s62" d="m424 402q0 1.97 0 4-1.63 0.37-3.31 0.75c-3.75 1.27-4.8 1.91-6.69 5.25q0.49-2.46 1-5 1.48-0.49 3-1 0-0.99 0-2c-1.98 0.99-1.98 0.99-4 2q0.49-1.48 1-3c2.96-1.48 5.74-1.06 9-1z"/>
	<path class="s63" d="m302 422c2.97 0 5.94 0 9 0q0 0.49 0 1-2.46 0.49-5 1c3.68 2.45 5.68 2.3 10.06 2.31 1.88 0.03 1.88 0.03 3.79 0.05q1.55-0.18 3.15-0.36 0.99-1.48 2-3-0.49 2.46-1 5-3.87 0.08-7.75 0.12-1.09 0.03-2.21 0.06c-7.14 0.06-7.14 0.06-10.04-2.18q-0.99-1.97-2-4z"/>
	<path class="s64" d="m521 414c3.94 0.56 6.79 1.62 10 4q0 1.48 0 3c-3.31 0.31-3.31 0.31-7 0-1.96-2.4-3-3.88-3-7z"/>
	<path class="s65" d="m475 407c2.06 0.44 2.06 0.44 4 1q-0.49 0.99-1 2-0.34 2.56-0.56 5.13c-0.13 1.36-0.13 1.36-0.26 2.75q-0.09 1.05-0.18 2.12-1.48 0-3 0-0.04-2.97-0.06-5.94-0.02-1.64-0.04-3.34c0.1-2.72 0.1-2.72 1.1-3.72z"/>
	<path class="s66" d="m439 398c2.48 0.99 2.48 0.99 5 2q0 0.49 0 1 2.46 0.49 5 1 0 1.48 0 3c-3.3 0-6.6 0-10 0 0-2.31 0-4.62 0-7z"/>
	<path class="s67" d="m274 391c2.2 1.74 2.94 2.6 3.36 5.42q-0.02 1.4-0.03 2.83-0.01 1.52-0.02 3.09-0.03 1.59-0.06 3.22-0.01 1.59-0.02 3.23c-0.08 7.9-0.08 7.9-1.23 10.21q-2.46-0.49-5-1 1.48-0.99 3-2c0.42-2.62 0.42-2.62 0.29-5.66q-0.01-1.68-0.03-3.4-0.03-1.76-0.07-3.57-0.02-1.76-0.04-3.58-0.06-4.4-0.15-8.79z"/>
	<path class="s68" d="m355 422q0 2.46 0 5c-1.98 0.99-1.98 0.99-4 2q-1.48-0.99-3-2 0-1.97 0-4c2.46-1.23 4.28-1.07 7-1z"/>
	<path class="s69" d="m353 405q1.48 0.49 3 1c0 4.62 0 9.24 0 14q-0.49 0-1 0c-0.33-2.97-0.66-5.94-1-9-0.33 2.97-0.66 5.94-1 9q-0.49 0-1 0c-0.33-4.62-0.66-9.24-1-14q0.99-0.49 2-1z"/>
	<path class="s70" d="m548 422c1.89 2.39 3.02 4.07 4 7-2.97 0.66-5.94 1.32-9 2q0-2.5 0-5 2.46 0 5 0 0-1.97 0-4z"/>
	<path class="s71" d="m452 422c-2.07 4.03-3.97 5.93-8 8-0.33-2.31-0.66-4.62-1-7 3.2-1.07 5.66-1.07 9-1z"/>
	<path class="s72" d="m488 420q3-0.06 6 0c1 1 1 1 1.06 3.56q-0.03 1.2-0.06 2.44-3.5 0-7 0 0-2.95 0-6z"/>
	<path class="s73" d="m340 400c-2 2-2 2-4.06 3-2.11 0.85-2.11 0.85-2.94 3q2.46 0.49 5 1c-0.99 1.49-0.99 1.49-2 3q-1.97 0-4 0 0-0.99 0-2-0.99 0-2 0c2.04-5.82 3.5-8.53 10-8z"/>
	<path class="s74" d="m589 381q3.69-0.08 7.38-0.13c1.04-0.02 1.04-0.02 2.11-0.05 1.84-0.01 3.68 0.08 5.51 0.18q0.99 0.99 2 2c-4.1 1.04-7.61 0.94-11.81 0.56q-1.74-0.15-3.52-0.31-1.32-0.12-2.67-0.25 0.49-0.99 1-2z"/>
	<path class="s75" d="m354 358c2.44 0.25 2.44 0.25 5 1q0.99 1.48 2 3c-0.99 0.5-0.99 0.5-2 1q-1.48-1.48-3-3c0.66 3.3 1.32 6.6 2 10q-0.95-1.2-1.94-2.44c-1.47-1.84-1.47-1.84-3.06-3.56-0.13-2.5-0.13-2.5 0-5q0.49-0.49 1-1z"/>
	<path class="s76" d="m462 386q2.95 0 6 0c0.23 2.84 0.36 4.46-1.25 6.88-1.75 1.12-1.75 1.12-3.94 0.81q-0.89-0.34-1.81-0.69 0.71-0.65 1.44-1.31c1.8-1.71 1.8-1.71 2.56-4.69q-0.99 0-2 0 0 0.99 0 2-1.48-0.49-3-1 0.99 0 2 0 0-0.99 0-2z"/>
	<path class="s77" d="m476 534q0.49 0.99 1 2c2.59 0.47 2.59 0.47 5.56 0.63 1.52 0.11 1.52 0.11 3.07 0.22 1.17 0.08 1.17 0.08 2.37 0.15q0 0.49 0 1c-5.94 0.33-11.88 0.66-18 1 4-4 4-4 6-5z"/>
	<path class="s78" d="m292.19 400.38q0.89 0.3 1.81 0.62 0.49 2.46 1 5-1.42 0.62-2.87 1.25c-3.14 1.75-4 2.46-5.13 5.75q-0.49-1.48-1-3c2.01-3.01 2.84-3.63 6-5q0-0.99 0-2-2.46-0.49-5-1c3-2 3-2 5.19-1.62z"/>
	<path class="s79" d="m437 392q0.49 0 1 0c0.33 3.3 0.66 6.6 1 10q-1.97 0-4 0c0-2.31 0-4.62 0-7q-1.48-0.49-3-1 2.46 0 5 0 0-0.99 0-2z"/>
	<path class="s80" d="m272 418c-0.38 2.78-0.67 4.59-2.44 6.81-1.56 1.19-1.56 1.19-3.56 1.19q0-1.48 0-3-0.99-0.49-2-1c3.5-4 3.5-4 8-4z"/>
	<path class="s81" d="m257 416c2.97 0.33 5.94 0.66 9 1q-0.99 1.97-2 4c-2.38-0.25-2.38-0.25-5-1q-0.99-1.97-2-4z"/>
	<path class="s82" d="m219 323q0.49 0.99 1 2-0.89 0.83-1.81 1.69c-2.29 2.21-2.29 2.21-3.63 5-1.56 2.31-1.56 2.31-4.25 3.12q-1.14 0.09-2.31 0.19c3.51-4.18 7.08-8.2 11-12z"/>
	<path class="s83" d="m479 407c6.15-0.1 6.15-0.1 8 0 1 1 1 1 1.1 3.72q-0.02 1.65-0.04 3.34-0.01 1.65-0.02 3.35-0.02 1.28-0.04 2.59-0.49 0-1 0-0.09-0.92-0.18-1.86-0.13-1.21-0.26-2.45-0.12-1.2-0.24-2.43c-0.27-2.42-0.27-2.42-1.32-5.26q-2.46 0-5 0-0.99 1.97-2 4 0.49-2.46 1-5z"/>
	<path class="s84" d="m612 595q0.99 0 2 0c3.13 6.63 3.13 6.63 2 10-1.98-1.65-3.96-3.3-6-5q0.99-2.46 2-5z"/>
	<path class="s85" d="m329 411q0.99 0 2 0c0.33 3.3 0.66 6.6 1 10q-1.97-0.49-4-1c-0.1-6.15-0.1-6.15 0-8q0.49-0.49 1-1z"/>
	<path class="s86" d="m500 410q0.99 0 2 0c0.66 3.96 1.32 7.92 2 12q-1.97-0.49-4-1c0-3.63 0-7.26 0-11z"/>
	<path class="s87" d="m430 394q2.46 0.49 5 1-1.48 0.49-3 1-0.07 0.9-0.15 1.83-0.11 1.19-0.23 2.42-0.1 1.18-0.21 2.39c-0.43 2.45-1.2 4.21-2.41 6.36-0.33-2.31-0.66-4.62-1-7q0.49 0 1 0c0.33-2.64 0.66-5.28 1-8z"/>
	<path class="s88" d="m252 408c3 0 3 0 5 1q-0.49 1.97-1 4 0.99 0.49 2 1c-3.33 1.11-5.62 0.84-9 0q0.99-0.49 2-1c0.66-2.53 0.66-2.53 1-5z"/>
	<path class="s89" d="m437 384q0.99 0 2 0 0 0.99 0 2c3.3 0 6.6 0 10 0q0 0.49 0 1-1.04 0.04-2.12 0.08-1.36 0.08-2.75 0.17-1.36 0.07-2.75 0.14c-2.55 0.37-2.55 0.37-3.7 2.66q-0.34 0.96-0.68 1.95c0-2.64 0-5.28 0-8z"/>
	<path class="s90" d="m528 304c1.94 0.31 1.94 0.31 4 1q0.49 1.48 1 3 1.48 0.49 3 1 2.06 1.94 4 4-0.49 1.48-1 3-2.75-2.71-5.5-5.44-0.78-0.77-1.59-1.56-1.98-1.98-3.91-4 0-0.49 0-1z"/>
	<path class="s91" d="m342 243c6.63 0.75 6.63 0.75 10 3-5.94 0.5-5.94 0.5-12 1q0.99-1.97 2-4z"/>
	<path class="s92" d="m527 407q0.99 0 2 0 0 1.48 0 3 0.99 0 2 0 0 1.48 0 3-2.46 0.99-5 2 0-0.99 0-2-0.99-0.49-2-1 0.49-0.99 1-2 0.99 0 2 0 0-1.48 0-3z"/>
	<path class="s93" d="m548 417q0.49 1.48 1 3 0.99 0 2 0c1.86 3.13 2.2 5.37 2 9-2.48-2.2-3.61-4.06-4.69-7.19q-0.37-1.07-0.76-2.17-0.27-0.81-0.55-1.64 0.49-0.49 1-1z"/>
	<path class="s94" d="m290 418q-0.49 0.99-1 2 2.46 0 5 0 0 0.49 0 1c-4.83 0.08-9.24-0.05-14-1 3.8-2.53 5.68-3.34 10-2z"/>
	<path class="s95" d="m340 402c5.54-0.37 5.54-0.37 7.88 1.5q0.55 0.74 1.12 1.5c-1 1-1 1-2.85 1.1q-3.07-0.05-6.15-0.1 0-2 0-4z"/>
	<path class="s96" d="m200 342c1 3 1 3 0.18 4.75-2.68 3.72-4.54 6.06-9.18 7.25q4.5-6 9-12z"/>
	<path class="s97" d="m528 505q0 1.48 0 3c-5.14 4-5.14 4-9 4q0-0.99 0-2c2.97-1.65 5.94-3.3 9-5z"/>
	<path class="s98" d="m448 414q0.99 0.49 2 1c-0.33 2.31-0.66 4.62-1 7q-2.46 0-5 0 0.99-0.49 2-1 0.56-2.99 1-6 0.49-0.49 1-1z"/>
	<path class="s99" d="m300 415q0.99 0.49 2 1 0 1.97 0 4 1.48 0.49 3 1 0 0.49 0 1c-2.97 0-5.94 0-9 0q1.48-0.99 3-2c0.73-2.56 0.73-2.56 1-5z"/>
	<path class="s100" d="m371 412c2.13 3.19 2.5 5.27 3 9q-2.46 0-5 0c0.66-2.97 1.32-5.94 2-9z"/>
	<path class="s101" d="m388 402q0 1.48 0 3c-2.33 1.21-4.5 2.17-7 3q-0.49-2.46-1-5c2.93-0.98 4.96-1.08 8-1z"/>
	<path class="s102" d="m371 392c6.88 0.88 6.88 0.88 8 2 0.14 2.67 0.04 5.32 0 8q-0.99 0-2 0-0.37-1.91-0.75-3.88c-0.77-3.39-0.77-3.39-3.38-5.62q-0.92-0.25-1.87-0.5z"/>
	<path class="s103" d="m467 383q0.49 1.48 1 3c-2.64 0-5.28 0-8 0q0-1.48 0-3c2.67-1.33 4.17-0.67 7 0z"/>
	<path class="s104" d="m353 256.81q1.02-0.02 2.06-0.04c1.94 0.23 1.94 0.23 4.94 2.23-4.62 0.33-9.24 0.66-14 1q0-0.99 0-2c2.64-0.88 4.28-1.16 7-1.19z"/>
	<path class="s105" d="m348 390q1.48 0.99 3 2c-2.25 2.56-2.25 2.56-5 5-2.19-0.25-2.19-0.25-4-1-0.99 0.5-0.99 0.5-2 1q0.99-1.97 2-4 2.46 0.49 5 1 0.49-1.97 1-4z"/>
	<path class="s106" d="m465 267c4.22 0.48 6.8 1.17 10 4-1.63 0.69-1.63 0.69-4 1-3.25-1.44-3.25-1.44-6-3q0-0.99 0-2z"/>
	<path class="s107" d="m401 205c-5.44 2.47-5.44 2.47-11 5q0-1.48 0-3c6.5-3.13 6.5-3.13 11-2z"/>
	<path class="s108" d="m436 195q-0.99 2.95-2 6-1.48-1.97-3-4c-0.99 0.5-0.99 0.5-2 1q-2.52-0.42-5-1c3.66-2.11 8.01-3.99 12-2z"/>
	<path class="s109" d="m503 532c4.52-0.08 8.59-0.1 13 1q0 0.49 0 1c-6.44 0.5-6.44 0.5-13 1q0-1.48 0-3z"/>
	<path class="s110" d="m335 423c2.97 0 5.94 0 9 0q0 1.48 0 3c-3.38 0.19-3.38 0.19-7 0q-0.99-1.48-2-3z"/>
	<path class="s111" d="m389 411q0.49 0 1 0 0.33 3.19 0.63 6.38 0.17 1.76 0.35 3.58 0.01 1.5 0.02 3.04-0.99 0.99-2 2c-0.99-1.98-1.98-3.96-3-6q1.48 0 3 0c0-2.97 0-5.94 0-9z"/>
	<path class="s112" d="m578 347c2.97 0.5 2.97 0.5 6 1q0 1.48 0 3-0.99 0-2 0 0 1.48 0 3-0.99 0-2 0c-0.66-2.31-1.32-4.62-2-7z"/>
	<path class="s113" d="m534 533q2.16-0.12 4.31-0.19c1.2-0.05 1.2-0.05 2.43-0.1 2.74 0.35 3.55 1.18 5.26 3.29-2.82 1.41-4.17 0.51-7.13-0.44q-1.35-0.43-2.75-0.87-1.05-0.34-2.12-0.69 0-0.49 0-1z"/>
	<path class="s114" d="m471 386q0.99 0 2 0c-0.61 6.48-0.61 6.48-2.44 8.94-1.56 1.06-1.56 1.06-3.56 1.06q0.43-0.8 0.88-1.62c1.29-2.73 2.21-5.51 3.12-8.38z"/>
	<path class="s115" d="m455 386q0.99 0 2 0 0.43 0.92 0.88 1.88c1.06 2.25 1.06 2.25 3.12 4.12-3.75 1.13-3.75 1.13-6 0-0.69-2.5-0.69-2.5-1-5q0.49-0.49 1-1z"/>
	<path class="s116" d="m326 264q-0.49 1.48-1 3-1.97-0.49-4-1-0.49 0.99-1 2c-2.31 0-4.62 0-7 0 4.31-2.88 7.81-4 13-4z"/>
	<path class="s117" d="m476 420q1.97 0 4 0 0 2.46 0 5-1.97 0-4 0 0-2.46 0-5z"/>
	<path class="s118" d="m338 407c2.38-0.29 2.38-0.29 5.13-0.19q1.35 0.04 2.75 0.08 1.05 0.06 2.12 0.11c-3.04 2.02-4.19 2.32-7.69 2.63q-1.2 0.11-2.45 0.22-0.91 0.07-1.86 0.15 0.99-1.48 2-3z"/>
	<path class="s119" d="m611 374c1.99 2.99 2.94 5.6 4 9q-2.46 0-5 0 0-1.48 0-3 0.99 0 2 0-0.49-2.95-1-6z"/>
	<path class="s120" d="m358 227q1.48 0.49 3 1-1.68 1.51-3.38 3-0.93 0.83-1.89 1.69c-1.73 1.31-1.73 1.31-3.73 1.31 1.38-3.34 2.85-5.19 6-7z"/>
	<path class="s121" d="m442 457c1.5 1.38 1.5 1.38 3 3q0 0.99 0 2c-6.75-0.75-6.75-0.75-9-3q2.95 0 6 0 0-0.99 0-2z"/>
	<path class="s122" d="m550 447q0.99 0 2 0c2.13 6.75 2.13 6.75 1 9q-0.99 0-2 0c-0.33-2.97-0.66-5.94-1-9z"/>
	<path class="s123" d="m403 442c3.37 1.44 5.51 3.33 8 6-3.15 0-4.42-0.28-7-2-0.75-2.13-0.75-2.13-1-4z"/>
	<path class="s124" d="m282 420q1.48 0 3 0 0.49 2.95 1 6-1.97-0.49-4-1 0-2.46 0-5z"/>
	<path class="s125" d="m494 520q0.99 0 2 0c-0.19 1.88-0.19 1.88-1 4-2.56 1.25-2.56 1.25-5 2q0-1.97 0-4 1.48 0 3 0 0.49-0.99 1-2z"/>
	<path class="s97" d="m426 455c2.97 0.33 5.94 0.66 9 1q0.49 1.48 1 3c-4.22-0.48-6.8-1.17-10-4z"/>
	<path class="s126" d="m267 394q0.49 0 1 0 0.04 2.19 0.06 4.38 0.02 1.21 0.04 2.46c-0.1 2.16-0.1 2.16-1.1 4.16q-0.99 0-2 0 0.21-2.47 0.44-4.94 0.12-1.37 0.24-2.77c0.32-2.29 0.32-2.29 1.32-3.29z"/>
	<path class="s127" d="m529 401c2.97 1.12 5.33 2.22 8 4q-0.49 1.48-1 3c-5.88-3.63-5.88-3.63-7-7z"/>
	<path class="s128" d="m341 389q0.49 0.99 1 2 2.95-0.49 6-1-0.49 1.97-1 4-2.46 0-5 0-0.49-2.46-1-5z"/>
	<path class="s129" d="m187 384q1.69 1.44 3.38 2.88 0.93 0.79 1.89 1.61 1.93 1.69 3.73 3.51c-4.25-0.47-6.27-2.89-9-6q0-0.99 0-2z"/>
	<path class="s130" d="m356 371q1.48 0 3 0c0 3.63 0 7.26 0 11q-0.49 0-1 0c-0.66-3.63-1.32-7.26-2-11z"/>
	<path class="s131" d="m430 208c2 4 2 4 2 8q-1.97 0.49-4 1c0.66-2.97 1.32-5.94 2-9z"/>
	<path class="s132" d="m595 560q0.99 0 2 0c3 5.75 3 5.75 3 8q-0.99 0-2 0 0-0.99 0-2-0.99-0.49-2-1c-0.63-2.56-0.63-2.56-1-5z"/>
	<path class="s133" d="m520 427c4.29 0.33 8.58 0.66 13 1q0 0.49 0 1c-6.63 1-6.63 1-10 1q-1.48-1.48-3-3z"/>
	<path class="s134" d="m256 426c2.97 0.33 5.94 0.66 9 1-1.49 1.49-1.49 1.49-3 3-2.06-0.13-2.06-0.13-4-1q-0.99-1.48-2-3z"/>
	<path class="s135" d="m247 413c2.31 0.33 4.62 0.66 7 1q-0.99 0.99-2 2-1.05 1.97-2 4-0.49-2.46-1-5-0.99 0-2 0 0-0.99 0-2z"/>
	<path class="s136" d="m293 400q1.48 0.49 3 1c0.25 2.81 0.25 2.81 0 6-2 1.88-2 1.88-4 3q-0.99-0.99-2-2 1.97-0.99 4-2-0.49-2.95-1-6z"/>
	<path class="s137" d="m526 398c2.31 0.66 4.62 1.32 7 2q0 0.99 0 2c-4.46-0.99-4.46-0.99-9-2q0.99-0.99 2-2z"/>
	<path class="s138" d="m181 370c1.49 0.99 1.49 0.99 3 2 0.19 2.63 0.19 2.63 0 5-0.99 0.5-0.99 0.5-2 1-1.35-2.71-1.07-5.01-1-8z"/>
	<path class="s139" d="m569 360q1.48 0 3 0 0 1.48 0 3c3.47-0.5 3.47-0.5 7-1q-0.49 0.99-1 2c-2.31 0-4.62 0-7 0q-0.99-1.97-2-4z"/>
	<path class="s140" d="m196 344q1.48 0.49 3 1c-1.98 2.31-3.96 4.62-6 7q-0.49-1.48-1-3c1.94-2.69 1.94-2.69 4-5z"/>
	<path class="s141" d="m233 302q1.97 1.48 4 3-0.49 0.99-1 2-1.97 0-4 0-0.49-1.48-1-3 0.99-0.99 2-2z"/>
	<path class="s142" d="m436 441c2.13 3.19 2.5 5.27 3 9q-1.48-0.49-3-1c0-2.64 0-5.28 0-8z"/>
	<path class="s143" d="m390 427c4.88 4.63 4.88 4.63 6 8q-1.48 0-3 0c-3-5.75-3-5.75-3-8z"/>
	<path class="s144" d="m309 408q1.48 0.49 3 1-0.49 1.48-1 3-0.99 0-2 0-0.49 1.48-1 3c-0.63-1.81-0.63-1.81-1-4q0.99-1.48 2-3z"/>
	<path class="s145" d="m323 365c2.06 0.44 2.06 0.44 4 1q-1.48 0.99-3 2 0.49 2.46 1 5-1.48-0.99-3-2c-0.25-2.56-0.25-2.56 0-5q0.49-0.49 1-1z"/>
	<path class="s146" d="m577 346c2.64 0 5.28 0 8 0q0.49 1.48 1 3c-2.97-0.33-5.94-0.66-9-1q0-0.99 0-2z"/>
</svg>