<?xml version="1.0" encoding="UTF-8"?>
<svg version="1.1" xmlns="http://www.w3.org/2000/svg" width="800" height="800">
<path d="M0 0 C264 0 528 0 800 0 C800 264 800 528 800 800 C536 800 272 800 0 800 C0 536 0 272 0 0 Z " fill="#FEFEFE" transform="translate(0,0)"/>
<path d="M0 0 C1.616155 2.75697029 1.3394607 4.627452 1.0625 7.8125 C0.04684528 10.72841193 -1.28443539 13.47126119 -2.625 16.25 C-9.68515169 31.54050287 -14.22405829 47.02077121 -15.9375 63.8125 C-14.99777344 63.91691406 -14.05804688 64.02132812 -13.08984375 64.12890625 C21.45875417 69.12127815 55.81940604 88.27320279 81.0625 111.8125 C82.43308799 113.00508955 83.80789029 114.1928586 85.1875 115.375 C94.44270762 123.45701229 102.34523024 132.56287567 109.9375 142.1875 C110.42645752 142.80705566 110.91541504 143.42661133 111.41918945 144.06494141 C114.93705559 148.56161118 114.93705559 148.56161118 116.0625 150.8125 C117.96626143 151.16272026 119.88815983 151.41553235 121.8125 151.625 C133.41377061 153.27687862 142.94429221 157.50575586 152.0625 164.8125 C153.23619141 165.740625 153.23619141 165.740625 154.43359375 166.6875 C165.97110708 176.3377641 173.46562284 190.07329629 178.0625 204.25 C178.28244629 204.91209473 178.50239258 205.57418945 178.72900391 206.25634766 C180.00204414 210.461109 180.17932455 213.56480213 179.0625 217.8125 C177.9375 219.6875 177.9375 219.6875 176.0625 220.8125 C170.76261491 221.18362217 166.98514902 220.28036744 162.0625 218.375 C154.38318973 215.5629269 147.21874249 214.93976052 139.0625 214.8125 C139.5265625 216.730625 139.5265625 216.730625 140 218.6875 C144.91626198 239.0080495 143.48497711 263.50186439 139.0625 283.8125 C138.73765625 285.42125 138.73765625 285.42125 138.40625 287.0625 C137.09576784 292.92846776 135.18332639 298.54941969 133.125 304.1875 C132.88418701 304.85418701 132.64337402 305.52087402 132.39526367 306.20776367 C131.14717858 309.50269174 129.86410853 312.07813715 127.74609375 314.9140625 C125.68006024 317.69574207 125.68006024 317.69574207 126.77783203 320.67504883 C127.97828652 323.60683154 129.30139184 326.1995213 130.93359375 328.91015625 C131.50239258 329.86575439 132.07119141 330.82135254 132.65722656 331.8059082 C133.2653418 332.8187085 133.87345703 333.83150879 134.5 334.875 C140.61360939 345.20172464 146.30943081 355.673851 151.78759766 366.34814453 C153.02036473 368.73105353 154.27598597 371.09997648 155.54296875 373.46484375 C182.7570321 424.29214121 182.7570321 424.29214121 179.0625 436.8125 C176.90749727 439.6626649 175.3625986 440.52671256 171.89453125 441.2890625 C163.43328218 442.01546544 157.7861279 437.7825824 151.53515625 432.52880859 C147.57971886 429.09246071 143.80761714 425.475214 140.0625 421.8125 C139.45905762 421.2242041 138.85561523 420.6359082 138.23388672 420.02978516 C136.37830302 418.21408557 134.53065241 416.39081421 132.6875 414.5625 C132.12893311 414.00876709 131.57036621 413.45503418 130.99487305 412.88452148 C127.46187975 409.33683144 124.14130672 405.6508386 120.86572266 401.86523438 C117.19107344 397.68212435 113.32350396 393.67575718 109.4921875 389.63671875 C106.69767648 386.67614047 103.9539682 383.7277432 101.40625 380.55078125 C99.15154214 377.9165309 97.03664448 376.07752872 94.1875 374.125 C93.38570312 373.56425781 92.58390625 373.00351562 91.7578125 372.42578125 C84.88327044 368.31101912 79.8113616 367.29253716 71.875 367.375 C70.37972778 367.37983398 70.37972778 367.37983398 68.85424805 367.38476562 C60.89987761 367.52703792 53.21993146 368.5510504 45.375 369.8125 C35.44724842 371.39532534 25.74531092 372.24938804 15.6875 372.3125 C14.51098877 372.33054687 13.33447754 372.34859375 12.12231445 372.3671875 C5.16504602 372.31826801 1.08125309 371.83125309 -3.9375 366.8125 C-4.47634622 362.97322067 -4.73641288 360.32289755 -2.90234375 356.85546875 C9.6987624 341.03157331 33.84293078 331.60989117 51.1875 322.1875 C52.18531494 321.64206543 53.18312988 321.09663086 54.21118164 320.53466797 C58.99962717 317.93472374 63.79880547 315.43108515 68.734375 313.12109375 C69.61464355 312.69715332 70.49491211 312.27321289 71.40185547 311.83642578 C73.03742953 311.05501634 74.68714822 310.30224953 76.35205078 309.58544922 C79.49434296 308.0648055 81.55062159 306.9727667 82.99169922 303.70629883 C83.59322546 301.05339352 83.88234792 298.52683863 84.0625 295.8125 C84.16038818 294.38732056 84.16038818 294.38732056 84.26025391 292.93334961 C84.40137009 289.90982321 84.43364195 286.90163716 84.4375 283.875 C84.46199219 282.86759766 84.48648437 281.86019531 84.51171875 280.82226562 C84.54909278 271.13616156 82.07743497 262.20082463 75.8828125 254.58984375 C63.29460478 242.29878256 44.92764688 240.42365391 28.25 240.5625 C27.10233154 240.56636719 25.95466309 240.57023438 24.7722168 240.57421875 C13.15011315 240.68894988 1.61814129 241.61703401 -9.9375 242.8125 C-3.44982155 266.30227785 -3.44982155 266.30227785 10.55859375 285.75 C12.62802907 288.58808273 12.54164895 290.38088083 12.0625 293.8125 C10.82104492 295.50512695 10.82104492 295.50512695 9.0625 296.8125 C2.30943122 297.34985266 -4.77211073 295.01871367 -11.1875 293.125 C-12.10208984 292.8573584 -13.01667969 292.5897168 -13.95898438 292.31396484 C-36.15434434 285.64832806 -57.95095497 273.56266067 -70.9375 253.8125 C-71.58666885 253.87144943 -72.23583771 253.93039886 -72.90467834 253.99113464 C-89.75226728 255.48749655 -106.46377431 256.1809406 -123.375 256.125 C-124.53038269 256.12317719 -125.68576538 256.12135437 -126.87615967 256.11947632 C-143.75435642 256.07474946 -160.26112034 255.62760032 -176.9375 252.8125 C-178.02417969 252.64089355 -179.11085938 252.46928711 -180.23046875 252.29248047 C-214.29338073 246.85969847 -250.97701672 238.11542894 -275.9375 212.8125 C-276.576875 212.17183594 -277.21625 211.53117188 -277.875 210.87109375 C-282.51320517 205.87342768 -285.35719609 200.22984522 -286.5 193.5 C-282.71203297 168.66777168 -259.182963 148.36874817 -241.9375 131.8125 C-241.43154297 131.31959473 -240.92558594 130.82668945 -240.40429688 130.31884766 C-235.66438199 125.76872075 -232.04540652 122.29765362 -225.25 122.25 C-223.80723187 122.39135986 -222.36530445 122.56162763 -220.9375 122.8125 C-220.999375 121.6575 -221.06125 120.5025 -221.125 119.3125 C-220.56669211 114.83806102 -218.48684979 113.09081399 -215 110.375 C-211.30439014 107.9112601 -208.70130569 106.43556198 -204.25 106.375 C-198.93910566 106.26364254 -195.06713794 104.18846657 -190.5 101.6875 C-189.80108643 101.32084229 -189.10217285 100.95418457 -188.38208008 100.57641602 C-184.63929991 98.43383973 -183.19389678 97.45890879 -181.55078125 93.31640625 C-179.18024927 88.16781743 -175.60432166 87.05739631 -170.5625 84.875 C-169.64017578 84.45387939 -168.71785156 84.03275879 -167.76757812 83.59887695 C-160.25069192 80.22658398 -152.57208795 77.26168345 -144.77978516 74.58813477 C-139.68220405 72.77454352 -136.52296605 71.02995919 -132.9375 66.8125 C-132.07511719 65.87792969 -131.21273437 64.94335938 -130.32421875 63.98046875 C-129.42420355 62.98722884 -128.52447222 61.99373165 -127.625 61 C-125.73359219 58.93340933 -123.8365079 56.87210649 -121.9375 54.8125 C-121.2775 54.09578125 -120.6175 53.3790625 -119.9375 52.640625 C-114.38669623 46.85056245 -108.11891672 42.00742076 -101.73583984 37.1796875 C-100.07722556 35.91872633 -98.43802354 34.6323392 -96.80078125 33.34375 C-80.04282119 20.64645185 -22.51336919 -13.7985166 0 0 Z " fill="#B3DDF4" transform="translate(452.9375,180.1875)"/>
<path d="M0 0 C1.616155 2.75697029 1.3394607 4.627452 1.0625 7.8125 C0.04684528 10.72841193 -1.28443539 13.47126119 -2.625 16.25 C-9.68515169 31.54050287 -14.22405829 47.02077121 -15.9375 63.8125 C-14.99777344 63.91691406 -14.05804688 64.02132812 -13.08984375 64.12890625 C21.45875417 69.12127815 55.81940604 88.27320279 81.0625 111.8125 C82.43308799 113.00508955 83.80789029 114.1928586 85.1875 115.375 C94.44270762 123.45701229 102.34523024 132.56287567 109.9375 142.1875 C110.42645752 142.80705566 110.91541504 143.42661133 111.41918945 144.06494141 C114.93705559 148.56161118 114.93705559 148.56161118 116.0625 150.8125 C117.96626143 151.16272026 119.88815983 151.41553235 121.8125 151.625 C133.41377061 153.27687862 142.94429221 157.50575586 152.0625 164.8125 C153.23619141 165.740625 153.23619141 165.740625 154.43359375 166.6875 C165.97110708 176.3377641 173.46562284 190.07329629 178.0625 204.25 C178.28244629 204.91209473 178.50239258 205.57418945 178.72900391 206.25634766 C180.00204414 210.461109 180.17932455 213.56480213 179.0625 217.8125 C177.9375 219.6875 177.9375 219.6875 176.0625 220.8125 C170.76261491 221.18362217 166.98514902 220.28036744 162.0625 218.375 C154.38318973 215.5629269 147.21874249 214.93976052 139.0625 214.8125 C139.5265625 216.730625 139.5265625 216.730625 140 218.6875 C144.91626198 239.0080495 143.48497711 263.50186439 139.0625 283.8125 C138.73765625 285.42125 138.73765625 285.42125 138.40625 287.0625 C137.09576784 292.92846776 135.18332639 298.54941969 133.125 304.1875 C132.88418701 304.85418701 132.64337402 305.52087402 132.39526367 306.20776367 C131.14717858 309.50269174 129.86410853 312.07813715 127.74609375 314.9140625 C125.68006024 317.69574207 125.68006024 317.69574207 126.77783203 320.67504883 C127.97828652 323.60683154 129.30139184 326.1995213 130.93359375 328.91015625 C131.50239258 329.86575439 132.07119141 330.82135254 132.65722656 331.8059082 C133.2653418 332.8187085 133.87345703 333.83150879 134.5 334.875 C140.61360939 345.20172464 146.30943081 355.673851 151.78759766 366.34814453 C153.02036473 368.73105353 154.27598597 371.09997648 155.54296875 373.46484375 C182.7570321 424.29214121 182.7570321 424.29214121 179.0625 436.8125 C176.90749727 439.6626649 175.3625986 440.52671256 171.89453125 441.2890625 C163.43328218 442.01546544 157.7861279 437.7825824 151.53515625 432.52880859 C147.57971886 429.09246071 143.80761714 425.475214 140.0625 421.8125 C139.45905762 421.2242041 138.85561523 420.6359082 138.23388672 420.02978516 C136.37830302 418.21408557 134.53065241 416.39081421 132.6875 414.5625 C132.12893311 414.00876709 131.57036621 413.45503418 130.99487305 412.88452148 C127.46187975 409.33683144 124.14130672 405.6508386 120.86572266 401.86523438 C117.19107344 397.68212435 113.32350396 393.67575718 109.4921875 389.63671875 C106.69767648 386.67614047 103.9539682 383.7277432 101.40625 380.55078125 C99.15154214 377.9165309 97.03664448 376.07752872 94.1875 374.125 C93.38570312 373.56425781 92.58390625 373.00351562 91.7578125 372.42578125 C84.88327044 368.31101912 79.8113616 367.29253716 71.875 367.375 C70.37972778 367.37983398 70.37972778 367.37983398 68.85424805 367.38476562 C60.89987761 367.52703792 53.21993146 368.5510504 45.375 369.8125 C35.44724842 371.39532534 25.74531092 372.24938804 15.6875 372.3125 C14.51098877 372.33054687 13.33447754 372.34859375 12.12231445 372.3671875 C5.16504602 372.31826801 1.08125309 371.83125309 -3.9375 366.8125 C-4.47634622 362.97322067 -4.73641288 360.32289755 -2.90234375 356.85546875 C9.6987624 341.03157331 33.84293078 331.60989117 51.1875 322.1875 C52.18531494 321.64206543 53.18312988 321.09663086 54.21118164 320.53466797 C58.99962717 317.93472374 63.79880547 315.43108515 68.734375 313.12109375 C69.61464355 312.69715332 70.49491211 312.27321289 71.40185547 311.83642578 C73.03742953 311.05501634 74.68714822 310.30224953 76.35205078 309.58544922 C79.49434296 308.0648055 81.55062159 306.9727667 82.99169922 303.70629883 C83.59322546 301.05339352 83.88234792 298.52683863 84.0625 295.8125 C84.16038818 294.38732056 84.16038818 294.38732056 84.26025391 292.93334961 C84.40137009 289.90982321 84.43364195 286.90163716 84.4375 283.875 C84.46199219 282.86759766 84.48648437 281.86019531 84.51171875 280.82226562 C84.54909278 271.13616156 82.07743497 262.20082463 75.8828125 254.58984375 C63.29460478 242.29878256 44.92764688 240.42365391 28.25 240.5625 C27.10233154 240.56636719 25.95466309 240.57023438 24.7722168 240.57421875 C13.15011315 240.68894988 1.61814129 241.61703401 -9.9375 242.8125 C-3.44982155 266.30227785 -3.44982155 266.30227785 10.55859375 285.75 C12.62802907 288.58808273 12.54164895 290.38088083 12.0625 293.8125 C10.82104492 295.50512695 10.82104492 295.50512695 9.0625 296.8125 C2.30943122 297.34985266 -4.77211073 295.01871367 -11.1875 293.125 C-12.10208984 292.8573584 -13.01667969 292.5897168 -13.95898438 292.31396484 C-36.15434434 285.64832806 -57.95095497 273.56266067 -70.9375 253.8125 C-71.58666885 253.87144943 -72.23583771 253.93039886 -72.90467834 253.99113464 C-89.75226728 255.48749655 -106.46377431 256.1809406 -123.375 256.125 C-124.53038269 256.12317719 -125.68576538 256.12135437 -126.87615967 256.11947632 C-143.75435642 256.07474946 -160.26112034 255.62760032 -176.9375 252.8125 C-178.02417969 252.64089355 -179.11085938 252.46928711 -180.23046875 252.29248047 C-214.29338073 246.85969847 -250.97701672 238.11542894 -275.9375 212.8125 C-276.576875 212.17183594 -277.21625 211.53117188 -277.875 210.87109375 C-282.51320517 205.87342768 -285.35719609 200.22984522 -286.5 193.5 C-282.2924199 165.9169749 -253.56631778 141.74887049 -233.53515625 124.2890625 C-230.14147679 122.36002365 -227.78117197 122.42993312 -223.9375 122.8125 C-221.18424946 124.71859653 -220.12725656 125.82005641 -219.49609375 129.12109375 C-220.1361925 133.02399674 -222.54777051 134.75481298 -225.4375 137.1875 C-225.98994385 137.67299316 -226.5423877 138.15848633 -227.11157227 138.65869141 C-228.70841038 140.0577592 -230.31928701 141.43825725 -231.9375 142.8125 C-257.04450457 164.23249937 -257.04450457 164.23249937 -271.625 192.9375 C-269.42473554 202.13860591 -260.00601101 209.35961034 -252.328125 214.10546875 C-214.7946929 236.33992227 -167.73124474 242.05030357 -124.85742188 241.94287109 C-122.3085337 241.93749163 -119.75982052 241.94286365 -117.2109375 241.94921875 C-109.00662426 241.95225129 -100.89265218 241.80885343 -92.71655273 241.03295898 C-88.12624279 240.6688151 -83.53857354 240.72951471 -78.9375 240.8125 C-79.21464844 240.07644531 -79.49179687 239.34039062 -79.77734375 238.58203125 C-80.13957031 237.60621094 -80.50179687 236.63039063 -80.875 235.625 C-81.23464844 234.66207031 -81.59429687 233.69914063 -81.96484375 232.70703125 C-83.50672527 228.11854047 -84.09200989 223.96134952 -84.125 219.125 C-84.13917969 218.17238281 -84.15335938 217.21976563 -84.16796875 216.23828125 C-83.9375 213.8125 -83.9375 213.8125 -81.9375 211.8125 C-78.4375 212 -78.4375 212 -74.9375 212.8125 C-72.96943682 215.76459476 -72.54715969 217.61885316 -72.05273438 221.0534668 C-69.39594401 239.23319762 -59.11254227 254.1457431 -44.50390625 265.05078125 C-33.46987829 272.62512921 -21.04046227 278.72623497 -7.9375 281.8125 C-8.46537109 280.91337891 -8.46537109 280.91337891 -9.00390625 279.99609375 C-17.98891869 263.5040213 -21.71608252 244.91452077 -24.515625 226.51660156 C-24.92585739 223.88712589 -25.37603556 221.26824316 -25.84375 218.6484375 C-26.05789551 217.43571167 -26.05789551 217.43571167 -26.27636719 216.19848633 C-26.53916076 214.71332814 -26.80512569 213.22872536 -27.07519531 211.74487305 C-27.88742228 207.00707309 -28.20598503 202.59876202 -27.9375 197.8125 C-25.9375 195.8125 -25.9375 195.8125 -23 195.4375 C-19.9375 195.8125 -19.9375 195.8125 -18.3190918 197.48071289 C-16.70348182 200.20746512 -16.24733696 202.36690994 -15.76953125 205.49609375 C-15.59873047 206.58857422 -15.42792969 207.68105469 -15.25195312 208.80664062 C-15.00348633 210.51110352 -15.00348633 210.51110352 -14.75 212.25 C-14.57275391 213.38244141 -14.39550781 214.51488281 -14.21289062 215.68164062 C-13.48712879 220.43692183 -12.82900471 224.9929961 -12.9375 229.8125 C-12.30328125 229.69132813 -11.6690625 229.57015625 -11.015625 229.4453125 C18.22268675 224.1953394 52.24277626 221.0108529 78.3125 238.0625 C90.86022708 247.36234274 95.99298498 258.46815973 98.72119141 273.49072266 C100.58910372 286.19733645 100.13293749 303.27866876 94.0625 314.8125 C90.05330231 318.75348827 85.13346078 320.90707266 80.125 323.3125 C65.00549993 330.72961324 50.3168057 338.91450171 35.6875 347.25 C34.83808838 347.73388184 33.98867676 348.21776367 33.11352539 348.71630859 C28.02264791 351.63596463 23.01387434 354.66201467 18.0625 357.8125 C26.97964253 357.48516186 35.70345719 356.86002274 44.5 355.3125 C45.26554199 355.17827637 46.03108398 355.04405273 46.81982422 354.90576172 C48.2717028 354.65021842 49.723529 354.39437724 51.17529297 354.13818359 C55.13928427 353.45410023 59.04528829 353.00706581 63.0625 352.8125 C63.71186523 352.77995117 64.36123047 352.74740234 65.03027344 352.71386719 C82.50207822 351.9501989 95.46864703 355.88989491 108.75 367.6875 C112.37960205 371.09973034 115.76729989 374.58962774 118.97265625 378.3984375 C121.99625045 381.89111267 125.15673422 385.25187178 128.3125 388.625 C128.92778564 389.28395264 129.54307129 389.94290527 130.17700195 390.62182617 C133.39115097 394.08284771 133.39115097 394.08284771 136.75683594 397.39331055 C138.0625 398.8125 138.0625 398.8125 138.0625 400.8125 C139.0525 401.1425 140.0425 401.4725 141.0625 401.8125 C142.53515625 403.30859375 142.53515625 403.30859375 144.125 405.25 C149.86785462 412.01705799 156.04297665 418.36674879 163.0625 423.8125 C160.71149085 416.05004523 157.42728182 408.90302937 153.875 401.625 C153.57381256 401.0042157 153.27262512 400.3834314 152.96231079 399.74383545 C143.71848285 380.71599705 133.99024519 361.80559249 122.8828125 343.79296875 C120.58788684 340.03539734 118.4814329 336.19501912 116.4140625 332.30859375 C115.50771929 330.63474025 114.56412897 328.98056317 113.5859375 327.34765625 C108.95015627 319.56524139 108.95015627 319.56524139 110.0625 314.8125 C111.41193748 312.80174878 112.89705316 310.94127005 114.41015625 309.05078125 C126.36103447 292.86200296 127.42569702 269.04799043 127.32324219 249.66235352 C127.31249669 247.2492572 127.3232178 244.83690243 127.3359375 242.42382812 C127.34248386 234.30026579 126.99086015 226.52341733 125.52783203 218.50244141 C123.83645764 208.72512608 123.83645764 208.72512608 126.625 204.375 C136.19180098 198.24243527 149.61089885 200.15888928 160.18359375 202.375 C160.80363281 202.519375 161.42367188 202.66375 162.0625 202.8125 C153.71162063 184.70153036 144.1745877 173.93848459 125.0625 166.8125 C125.5575 167.823125 126.0525 168.83375 126.5625 169.875 C128.16301507 173.63239965 128.53616648 176.70739053 128.0625 180.8125 C127 182.75 127 182.75 125.0625 183.8125 C121.625 184.3125 121.625 184.3125 118.0625 183.8125 C114.95682318 180.55504199 113.30226792 177.37580107 111.75 173.1875 C96.38853137 135.06312786 56.79580023 105.70440031 20.34716797 89.76953125 C10.99300832 85.85113995 1.35128803 82.71636372 -8.40234375 79.9609375 C-10.03224243 79.49989624 -10.03224243 79.49989624 -11.69506836 79.02954102 C-13.81573368 78.4379391 -15.94019155 77.85972652 -18.06860352 77.29663086 C-19.03596436 77.02987549 -20.0033252 76.76312012 -21 76.48828125 C-21.85722656 76.26052002 -22.71445312 76.03275879 -23.59765625 75.7980957 C-26.43273435 74.60389596 -27.97408322 73.1633124 -29.9375 70.8125 C-33.15757163 53.46975204 -25.02910865 30.5364537 -17.9375 14.8125 C-35.69663048 17.89976606 -52.14200853 24.24438858 -67.9375 32.8125 C-69.10539063 33.42738281 -70.27328125 34.04226562 -71.4765625 34.67578125 C-86.90857954 43.08849483 -100.72968685 54.19775975 -112.9375 66.8125 C-111.77734375 66.5959375 -111.77734375 66.5959375 -110.59375 66.375 C-95.56367973 63.69637362 -95.56367973 63.69637362 -90.4375 65.875 C-88.9375 67.8125 -88.9375 67.8125 -88.4375 71.25 C-88.9375 74.8125 -88.9375 74.8125 -90.26953125 76.94140625 C-94.50664212 79.91296717 -99.0615721 79.85467213 -104.125 80.3125 C-126.7190066 82.78700948 -146.65286413 89.60190541 -167.16577148 99.37402344 C-170.87578768 101.10017833 -173.81622788 102.36860511 -177.9375 101.8125 C-179.75 100.75 -179.75 100.75 -180.9375 98.8125 C-181.3125 95.3125 -181.3125 95.3125 -180.9375 91.8125 C-179.01165493 89.43413595 -176.96295747 88.14567812 -174.2265625 86.83203125 C-173.48615723 86.47657227 -172.74575195 86.12111328 -171.98291016 85.75488281 C-170.78480713 85.19559082 -170.78480713 85.19559082 -169.5625 84.625 C-168.73411621 84.23280273 -167.90573242 83.84060547 -167.05224609 83.43652344 C-159.81758892 80.07791322 -152.42216746 77.23475308 -144.88134766 74.63989258 C-139.75346775 72.80440652 -136.54209099 71.0609934 -132.9375 66.8125 C-132.07511719 65.87792969 -131.21273437 64.94335938 -130.32421875 63.98046875 C-129.42420355 62.98722884 -128.52447222 61.99373165 -127.625 61 C-125.73359219 58.93340933 -123.8365079 56.87210649 -121.9375 54.8125 C-121.2775 54.09578125 -120.6175 53.3790625 -119.9375 52.640625 C-114.38669623 46.85056245 -108.11891672 42.00742076 -101.73583984 37.1796875 C-100.07722556 35.91872633 -98.43802354 34.6323392 -96.80078125 33.34375 C-80.04282119 20.64645185 -22.51336919 -13.7985166 0 0 Z " fill="#353737" transform="translate(452.9375,180.1875)"/>
<path d="M0 0 C2.75325054 1.90609653 3.81024344 3.00755641 4.44140625 6.30859375 C3.8013075 10.21149674 1.38972949 11.94231298 -1.5 14.375 C-2.05244385 14.86049316 -2.6048877 15.34598633 -3.17407227 15.84619141 C-4.77091038 17.2452592 -6.38178701 18.62575725 -8 20 C-33.10700457 41.41999937 -33.10700457 41.41999937 -47.6875 70.125 C-45.48723554 79.32610591 -36.06851101 86.54711034 -28.390625 91.29296875 C-13.79315016 99.93823324 1.84284376 105.09545957 18 110 C18 110.66 18 111.32 18 112 C18.66 112 19.32 112 20 112 C20.64757625 113.43671568 21.29299453 114.87440416 21.9375 116.3125 C22.47697266 117.51326172 22.47697266 117.51326172 23.02734375 118.73828125 C24 121 24 121 25 124 C18.25788965 124.2639983 12.70022297 123.48384301 6.25 121.5625 C5.34822021 121.29808105 4.44644043 121.03366211 3.51733398 120.76123047 C-17.22009281 114.44101324 -36.66996487 105.54035573 -52 90 C-52.639375 89.35933594 -53.27875 88.71867187 -53.9375 88.05859375 C-58.57570517 83.06092768 -61.41969609 77.41734522 -62.5625 70.6875 C-58.3549199 43.1044749 -29.62881778 18.93637049 -9.59765625 1.4765625 C-6.20397679 -0.45247635 -3.84367197 -0.38256688 0 0 Z " fill="#363738" transform="translate(229,303)"/>
<path d="M0 0 C0 0.66 0 1.32 0 2 C1.98 2 3.96 2 6 2 C6.495 3.485 6.495 3.485 7 5 C9.20944515 6.30930083 11.48208249 7.18864097 13.875 8.125 C18.01929456 10.61157674 20.52935182 13.87349187 23 18 C23 18.66 23 19.32 23 20 C23.66 20 24.32 20 25 20 C25.80591454 21.61798111 26.59382983 23.24492814 27.375 24.875 C27.81585937 25.77992188 28.25671875 26.68484375 28.7109375 27.6171875 C31.92457656 36.05055546 32.31666464 44.36277229 32.25 53.3125 C32.26160156 54.89901367 32.26160156 54.89901367 32.2734375 56.51757812 C32.27085937 57.53916016 32.26828125 58.56074219 32.265625 59.61328125 C32.26336914 60.52891846 32.26111328 61.44455566 32.25878906 62.38793945 C31.97687348 65.23342517 31.17846029 67.4075629 30 70 C29.67 70 29.34 70 29 70 C28.90203125 68.79085937 28.8040625 67.58171875 28.703125 66.3359375 C27.24171406 49.74322398 24.93806076 35.41154382 12.4375 23.3125 C3.63583771 16.11113995 -6.95794848 12.16870168 -18 10 C-18.79792969 9.79632813 -19.59585938 9.59265625 -20.41796875 9.3828125 C-40.46562396 4.72946169 -62.79750779 8.85055544 -83 11 C-83.33222305 8.92101779 -83.6609841 6.84148214 -83.98828125 4.76171875 C-84.17173096 3.60373779 -84.35518066 2.44575684 -84.54418945 1.25268555 C-85.7661957 -7.46760861 -85.7661957 -7.46760861 -84 -11 C-56.74838109 -17.68903373 -24.18102837 -14.40902978 0 0 Z " fill="#F5F7F8" transform="translate(523,399)"/>
<path d="M0 0 C3.0625 0.375 3.0625 0.375 4.6809082 2.04321289 C6.29651818 4.76996512 6.75266304 6.92940994 7.23046875 10.05859375 C7.48666992 11.69731445 7.48666992 11.69731445 7.74804688 13.36914062 C7.91369141 14.50544922 8.07933594 15.64175781 8.25 16.8125 C8.42724609 17.94494141 8.60449219 19.07738281 8.78710938 20.24414062 C9.51287121 24.99942183 10.17099529 29.5554961 10.0625 34.375 C10.69671875 34.25382812 11.3309375 34.13265625 11.984375 34.0078125 C41.31788321 28.74074611 75.99681454 25.35382313 101.8125 43.1875 C103.23772534 44.23849164 104.65785595 45.296656 106.0625 46.375 C105.0725 49.345 105.0725 49.345 104.0625 52.375 C94.94402619 52.93556191 88.52937072 52.70153362 80.19702148 48.67602539 C71.18155772 44.93403564 60.87500978 45.04486909 51.25 45.125 C50.10233154 45.12886719 48.95466309 45.13273437 47.7722168 45.13671875 C36.15011315 45.25144988 24.61814129 46.17953401 13.0625 47.375 C13.3925 49.025 13.7225 50.675 14.0625 52.375 C12.825 52.395625 11.5875 52.41625 10.3125 52.4375 C9.61640625 52.44910156 8.9203125 52.46070313 8.203125 52.47265625 C6.02604099 52.37333672 4.16275805 51.93083752 2.0625 51.375 C0.90009958 44.7344879 -0.25409221 38.09259562 -1.40283203 31.44970703 C-1.88580021 28.6723092 -2.37714223 25.89655422 -2.87109375 23.12109375 C-3.14351212 21.55994518 -3.41566471 19.9987502 -3.6875 18.4375 C-3.81487549 17.73641113 -3.94225098 17.03532227 -4.07348633 16.31298828 C-4.88773681 11.57355978 -5.20608958 7.16312573 -4.9375 2.375 C-2.9375 0.375 -2.9375 0.375 0 0 Z " fill="#3A3B3B" transform="translate(429.9375,375.625)"/>
<path d="M0 0 C0.46122227 1.64502609 0.9187895 3.29107697 1.375 4.9375 C1.63023437 5.85402344 1.88546875 6.77054687 2.1484375 7.71484375 C3.20430006 11.78814841 4.10908465 15.88795103 5 20 C-26.7393091 23.57986165 -61.6513511 24.88563505 -93 18 C-93 17.34 -93 16.68 -93 16 C-91.35 16 -89.7 16 -88 16 C-88.04640625 15.33613281 -88.0928125 14.67226563 -88.140625 13.98828125 C-88.43910806 6.68610635 -88.43910806 6.68610635 -86 2.875 C-85.34 2.25625 -84.68 1.6375 -84 1 C-83.34 1.33 -82.68 1.66 -82 2 C-82.47050781 2.55171875 -82.94101562 3.1034375 -83.42578125 3.671875 C-85.1802113 6.26651597 -85.66258637 8.18127415 -86.1875 11.25 C-86.34605469 12.14203125 -86.50460937 13.0340625 -86.66796875 13.953125 C-86.77753906 14.62859375 -86.88710938 15.3040625 -87 16 C-85.80503906 15.855625 -84.61007812 15.71125 -83.37890625 15.5625 C-81.77346911 15.37472957 -80.16799852 15.1872449 -78.5625 15 C-77.3878418 14.85691406 -77.3878418 14.85691406 -76.18945312 14.7109375 C-72.17830156 14.2487472 -68.27793969 13.95769974 -64.23828125 14.01953125 C-60.80425619 14.05921365 -57.93663413 13.68099024 -54.625 12.6875 C-49.29673049 11.23124243 -44.01821062 10.3489572 -38.5625 9.5625 C-27.67548249 7.9466757 -17.66242123 4.78693524 -7.4375 0.734375 C-4.83653161 -0.04925009 -2.70083541 -0.13504177 0 0 Z " fill="#F8F8F9" transform="translate(369,401)"/>
<path d="M0 0 C3.0681336 1.25872148 4.55249287 2.24498958 6.4375 5 C6.375 8.625 6.375 8.625 5.4375 12 C2.34861478 14.05925681 1.72814073 14.2390374 -1.75 14.125 C-3.6371875 14.063125 -3.6371875 14.063125 -5.5625 14 C-5.50920532 15.02939697 -5.50920532 15.02939697 -5.45483398 16.07958984 C-5.29758689 19.17780396 -5.14869047 22.27636396 -5 25.375 C-4.94392578 26.45523437 -4.88785156 27.53546875 -4.83007812 28.6484375 C-4.78173828 29.6796875 -4.73339844 30.7109375 -4.68359375 31.7734375 C-4.6364624 32.72653809 -4.58933105 33.67963867 -4.54077148 34.66162109 C-4.5625 37 -4.5625 37 -5.5625 39 C-8.5325 38.67 -11.5025 38.34 -14.5625 38 C-13.5725 37.505 -13.5725 37.505 -12.5625 37 C-12.5625 28.42 -12.5625 19.84 -12.5625 11 C-11.2425 11 -9.9225 11 -8.5625 11 C-8.500625 9.9275 -8.43875 8.855 -8.375 7.75 C-7.5625 4 -7.5625 4 -5.3125 1.5 C-2.5625 0 -2.5625 0 0 0 Z " fill="#B5DBEE" transform="translate(281.5625,380)"/>
<path d="M0 0 C2 1.5625 2 1.5625 3 4 C3.3125 7.3125 3.3125 7.3125 2 11 C-2.72245983 15.44933249 -7.43068977 18.50798509 -14 19 C-17.23437805 16.95723492 -17.8802431 15.41515725 -18.9375 11.75 C-17.58661954 6.34647814 -14.4315126 4.55274001 -9.90234375 1.55078125 C-6.04100089 -0.51241272 -4.23891765 -1.05972941 0 0 Z " fill="#353839" transform="translate(251,287)"/>
<path d="M0 0 C0.66 0.33 1.32 0.66 2 1 C1.52949219 1.55171875 1.05898438 2.1034375 0.57421875 2.671875 C-1.1802113 5.26651597 -1.66258637 7.18127415 -2.1875 10.25 C-2.34605469 11.14203125 -2.50460937 12.0340625 -2.66796875 12.953125 C-2.77753906 13.62859375 -2.88710938 14.3040625 -3 15 C-1.80503906 14.855625 -0.61007812 14.71125 0.62109375 14.5625 C2.22653089 14.37472957 3.83200148 14.1872449 5.4375 14 C6.6121582 13.85691406 6.6121582 13.85691406 7.81054688 13.7109375 C12.57584449 13.16184971 17.2224941 12.91318749 22.01953125 13.01367188 C24.74368027 12.99486611 27.33711252 12.54623333 30 12 C30.495 14.475 30.495 14.475 31 17 C33.97 17.33 36.94 17.66 40 18 C40 18.66 40 19.32 40 20 C42.31 20 44.62 20 47 20 C47 20.33 47 20.66 47 21 C35.55753545 21.21657662 24.22597343 21.02658143 12.8125 20.125 C11.78713135 20.04652832 10.7617627 19.96805664 9.70532227 19.88720703 C3.35783598 19.34864497 -2.78460028 18.39566077 -9 17 C-9 16.34 -9 15.68 -9 15 C-7.35 15 -5.7 15 -4 15 C-4.04640625 14.33613281 -4.0928125 13.67226563 -4.140625 12.98828125 C-4.43910806 5.68610635 -4.43910806 5.68610635 -2 1.875 C-1.34 1.25625 -0.68 0.6375 0 0 Z " fill="#F3F3F4" transform="translate(285,402)"/>
<path d="M0 0 C4.12746001 0.77918609 8.25144184 1.57544297 12.375 2.375 C14.1384375 2.70757812 14.1384375 2.70757812 15.9375 3.046875 C17.05898438 3.26601563 18.18046875 3.48515625 19.3359375 3.7109375 C20.37282715 3.90993652 21.4097168 4.10893555 22.47802734 4.31396484 C25 5 25 5 27 7 C25.05153696 11.30285589 23.71441624 14.12810894 19.25 16 C14.8501224 17.34372426 11.48314906 16.88193096 7 16 C6.01 15.814375 5.02 15.62875 4 15.4375 C3.34 15.293125 2.68 15.14875 2 15 C2 14.67 2 14.34 2 14 C3.65 14 5.3 14 7 14 C6.360625 13.13375 5.72125 12.2675 5.0625 11.375 C3.02451704 8.0401188 2.36566907 5.83952522 2 2 C1.34 2 0.68 2 0 2 C0 1.34 0 0.68 0 0 Z " fill="#313433" transform="translate(247,413)"/>
<path d="M0 0 C3.58326501 -0.05814085 7.16640838 -0.09364357 10.75 -0.125 C11.76578125 -0.14175781 12.7815625 -0.15851563 13.828125 -0.17578125 C14.8078125 -0.18222656 15.7875 -0.18867188 16.796875 -0.1953125 C17.69760742 -0.20578613 18.59833984 -0.21625977 19.52636719 -0.22705078 C22.13926856 0.01278324 23.75664666 0.67687936 26 2 C24.68 2 23.36 2 22 2 C22 5.96 22 9.92 22 14 C16.39 14 10.78 14 5 14 C4.875 4.25 4.875 4.25 6 2 C3.03 1.505 3.03 1.505 0 1 C0 0.67 0 0.34 0 0 Z " fill="#4D4E4E" transform="translate(472,406)"/>
<path d="M0 0 C5.09289543 0.51553849 8.90731397 2.30803093 13.25 4.875 C13.87390625 5.22691406 14.4978125 5.57882812 15.140625 5.94140625 C18.24265997 7.73978428 19.97997505 8.96996258 22 12 C21.125 14.6875 21.125 14.6875 20 17 C17.54137599 17.05383848 15.0839245 17.09359038 12.625 17.125 C11.57699219 17.15013672 11.57699219 17.15013672 10.5078125 17.17578125 C8.67102514 17.19344267 6.83398037 17.10303261 5 17 C4.34 16.34 3.68 15.68 3 15 C3 14.34 3 13.68 3 13 C2.34 12.34 1.68 11.68 1 11 C-0.33034463 7.4080695 -0.07279423 3.78529987 0 0 Z " fill="#575656" transform="translate(514,411)"/>
<path d="M0 0 C2.25 0 2.25 0 5 1 C6.97764821 3.14667797 8.51918328 5.49040535 10 8 C10.37125 8.61746094 10.7425 9.23492187 11.125 9.87109375 C13.44658639 15.51959636 12.63350923 22.96580622 10.8125 28.6875 C9 32 9 32 6.375 33.0625 C4 33 4 33 3 32 C3.23986574 30.14960712 3.48018959 28.29927262 3.72265625 26.44921875 C4.97286304 17.2859358 4.97286304 17.2859358 1.5 9.125 C0.81550781 8.320625 0.81550781 8.320625 0.1171875 7.5 C-1 6 -1 6 -1.375 3.125 C-1 1 -1 1 0 0 Z " fill="#323739" transform="translate(354,358)"/>
<path d="M0 0 C3.29360862 0.11762888 4.22763242 1.23318443 6.5625 3.625 C11.06216397 9.49956129 12.54313041 14.93888725 12.37109375 22.265625 C11.80034029 26.47117681 10.18264799 29.38498927 8 33 C6.35 32.67 4.7 32.34 3 32 C2.05368624 29.44495285 1.8444031 28.36305944 2.9375 25.8125 C4.45112751 21.80583894 4.72709891 18.22846843 4 14 C2.8614027 11.78231397 1.55446781 9.82708579 0.1171875 7.79296875 C-1.34992152 5.43841266 -1.49280723 3.71043978 -1 1 C-0.67 0.67 -0.34 0.34 0 0 Z " fill="#343438" transform="translate(323,365)"/>
<path d="M0 0 C2.625 -0.125 2.625 -0.125 6 1 C11.08031078 6.17184791 12.41527318 11.64104789 12.5625 18.75 C12.48019598 23.99550982 11.6197109 27.44519599 9 32 C7.35 32 5.7 32 4 32 C2.80311189 27.81089163 3.40097087 25.95054256 5 22 C5.67687773 16.02091339 4.13019413 11.96946878 1 7 C0.34 6.34 -0.32 5.68 -1 5 C-0.625 2.375 -0.625 2.375 0 0 Z " fill="#31383E" transform="translate(338,362)"/>
<path d="M0 0 C0.46122227 1.64502609 0.9187895 3.29107697 1.375 4.9375 C1.63023437 5.85402344 1.88546875 6.77054687 2.1484375 7.71484375 C3.20329435 11.78426858 4.08804176 15.89618792 5 20 C-4.405 20.495 -4.405 20.495 -14 21 C-14 20.67 -14 20.34 -14 20 C-12.35 20 -10.7 20 -9 20 C-9.04125 18.72125 -9.0825 17.4425 -9.125 16.125 C-9.125 10.99512743 -8.57540883 5.90127191 -7 1 C-4.53721199 -0.231394 -2.7204945 -0.07159196 0 0 Z " fill="#F0F0F1" transform="translate(369,401)"/>
<path d="M0 0 C3.0625 0.375 3.0625 0.375 4.875 2 C7.48225592 7.21451184 7.16061198 12.68450539 7.0625 18.375 C4.7525 18.375 2.4425 18.375 0.0625 18.375 C0.0625 21.345 0.0625 24.315 0.0625 27.375 C-0.5975 27.045 -1.2575 26.715 -1.9375 26.375 C-2.58819047 23.84088893 -3.11067629 21.38282364 -3.5625 18.8125 C-3.6965625 18.12091797 -3.830625 17.42933594 -3.96875 16.71679688 C-4.85396252 11.87070995 -5.22634332 7.30138326 -4.9375 2.375 C-2.9375 0.375 -2.9375 0.375 0 0 Z " fill="#333537" transform="translate(429.9375,375.625)"/>
<path d="M0 0 C1.57587891 0.25716797 1.57587891 0.25716797 3.18359375 0.51953125 C6.12457964 1.00103542 9.06283595 1.49578684 12 2 C12 2.66 12 3.32 12 4 C12.639375 4.103125 13.27875 4.20625 13.9375 4.3125 C14.618125 4.539375 15.29875 4.76625 16 5 C16.495 6.485 16.495 6.485 17 8 C13.10343485 8.07493395 9.7569839 7.95185935 6 7 C4.560265 6.85966422 3.11662851 6.75583143 1.671875 6.68359375 C0.47304688 6.62075195 0.47304688 6.62075195 -0.75 6.55664062 C-1.9875 6.49766602 -1.9875 6.49766602 -3.25 6.4375 C-4.51070313 6.37272461 -4.51070313 6.37272461 -5.796875 6.30664062 C-7.86440671 6.20091457 -9.93218281 6.09998705 -12 6 C-12 5.34 -12 4.68 -12 4 C-13.32 4.33 -14.64 4.66 -16 5 C-11.84669767 -1.55784578 -7.06387664 -1.25197163 0 0 Z " fill="#F3F3F2" transform="translate(488,400)"/>
<path d="M0 0 C3.0681336 1.25872148 4.55249287 2.24498958 6.4375 5 C6.375 8.625 6.375 8.625 5.4375 12 C1.74263897 14.46324069 -0.19543092 14.38991688 -4.5625 14 C-6.5 12.9375 -6.5 12.9375 -7.5625 11 C-8.0625 7.5625 -8.0625 7.5625 -7.5625 4 C-5.10190405 1.18789035 -3.78589784 0 0 0 Z " fill="#333A3C" transform="translate(281.5625,380)"/>
<path d="M0 0 C0.66 3.96 1.32 7.92 2 12 C-0.64 11.67 -3.28 11.34 -6 11 C-6 10.34 -6 9.68 -6 9 C-8.97 9 -11.94 9 -15 9 C-16.04449911 5.86650268 -15.93423645 5.01031744 -15 2 C-12.87528825 1.6648342 -10.75022095 1.33192171 -8.625 1 C-7.44164062 0.814375 -6.25828125 0.62875 -5.0390625 0.4375 C-2 0 -2 0 0 0 Z " fill="#F8F9FB" transform="translate(331,411)"/>
<path d="M0 0 C0.33 0 0.66 0 1 0 C1.33 3.3 1.66 6.6 2 10 C0.68 10 -0.64 10 -2 10 C-2 8.02 -2 6.04 -2 4 C-2.99 4 -3.98 4 -5 4 C-4.91892198 7.89667247 -4.80609388 11.79180304 -4.6875 15.6875 C-4.66494141 16.79029297 -4.64238281 17.89308594 -4.61914062 19.02929688 C-4.58369141 20.09599609 -4.54824219 21.16269531 -4.51171875 22.26171875 C-4.48553467 23.24100342 -4.45935059 24.22028809 -4.43237305 25.22924805 C-3.93074705 28.44378979 -2.91797183 30.38949245 -1 33 C1.04285061 33.60024521 1.04285061 33.60024521 3.1875 33.3125 C5.0746875 33.1578125 5.0746875 33.1578125 7 33 C7 33.99 7 34.98 7 36 C5.7625 36.020625 4.525 36.04125 3.25 36.0625 C2.55390625 36.07410156 1.8578125 36.08570313 1.140625 36.09765625 C-1.03645901 35.99833672 -2.89974195 35.55583752 -5 35 C-5.73943788 31.38064618 -6.43563088 27.75419483 -7.125 24.125 C-7.33253906 23.11179687 -7.54007812 22.09859375 -7.75390625 21.0546875 C-9.03104259 14.18457476 -8.92365376 8.72998944 -7 2 C-4.69 2 -2.38 2 0 2 C0 1.34 0 0.68 0 0 Z " fill="#555A5D" transform="translate(437,392)"/>
<path d="M0 0 C0.99 0 1.98 0 3 0 C3 1.98 3 3.96 3 6 C4.32 6 5.64 6 7 6 C7 7.32 7 8.64 7 10 C6.01 10.33 5.02 10.66 4 11 C3.91857073 12.7492214 3.86061459 14.49954542 3.8125 16.25 C3.77769531 17.22453125 3.74289062 18.1990625 3.70703125 19.203125 C4.04480822 22.42776918 4.74470761 23.70790797 7 26 C7.99 26.33 8.98 26.66 10 27 C10.33 27.99 10.66 28.98 11 30 C7.75 30.375 7.75 30.375 4 30 C0.29983961 26.24772468 -0.26346263 23.39340842 -0.390625 18.1640625 C-0.36420038 15.98403117 -0.31673547 13.80416985 -0.25 11.625 C-0.23195313 10.50738281 -0.21390625 9.38976562 -0.1953125 8.23828125 C-0.14835555 5.4912997 -0.08269468 2.74609953 0 0 Z " fill="#343434" transform="translate(432,396)"/>
<path d="M0 0 C0.33 0.99 0.66 1.98 1 3 C0.01 3 -0.98 3 -2 3 C-1.67 6.96 -1.34 10.92 -1 15 C0.65 15 2.3 15 4 15 C4.99 12.36 5.98 9.72 7 7 C8.65 7.33 10.3 7.66 12 8 C13.125 14.75 13.125 14.75 12 17 C9.93734178 17.3911938 7.90556733 17.50674519 5.8125 17.65625 C5.214375 17.7696875 4.61625 17.883125 4 18 C3.67 18.66 3.34 19.32 3 20 C3 19.34 3 18.68 3 18 C2.401875 17.9175 1.80375 17.835 1.1875 17.75 C-1.71536869 16.75473074 -2.44004778 15.623556 -4 13 C-4.29296875 10.203125 -4.29296875 10.203125 -4.1875 7.25 C-4.16042969 6.26515625 -4.13335937 5.2803125 -4.10546875 4.265625 C-4.07066406 3.51796875 -4.03585937 2.7703125 -4 2 C-2.68 1.34 -1.36 0.68 0 0 Z " fill="#545455" transform="translate(439,405)"/>
<path d="M0 0 C3.5 0.1875 3.5 0.1875 7 1 C9.10827055 4.16240582 9.33817465 5.50657469 9.625 9.1875 C9.69976562 10.08855469 9.77453125 10.98960937 9.8515625 11.91796875 C9.90054687 12.60503906 9.94953125 13.29210937 10 14 C9.29875 13.525625 8.5975 13.05125 7.875 12.5625 C4.83918663 10.91260143 2.40831214 10.39631536 -1 10 C-1.33 10.99 -1.66 11.98 -2 13 C-2.05391993 11.20866022 -2.09275571 9.41686101 -2.125 7.625 C-2.14820313 6.62726563 -2.17140625 5.62953125 -2.1953125 4.6015625 C-2 2 -2 2 0 0 Z " fill="#43464B" transform="translate(371,392)"/>
<path d="M0 0 C2.93225176 3.24862629 3.3657394 5.35305962 3.25 9.6875 C3.22679687 11.14736328 3.22679687 11.14736328 3.203125 12.63671875 C3 15 3 15 2 16 C-0.86267567 16.07325168 -3.700719 16.09238205 -6.5625 16.0625 C-7.36880859 16.05798828 -8.17511719 16.05347656 -9.00585938 16.04882812 C-11.00393756 16.03700518 -13.00197783 16.01906914 -15 16 C-16.84670417 11.79038695 -17.18085487 8.61179928 -17 4 C-16.67 4 -16.34 4 -16 4 C-16 5.98 -16 7.96 -16 10 C-15.1028125 10.1546875 -15.1028125 10.1546875 -14.1875 10.3125 C-12 11 -12 11 -10.75 12.5 C-7.88597485 14.9548787 -4.69675715 14.69698712 -1 15 C-1.144375 14.24074219 -1.28875 13.48148437 -1.4375 12.69921875 C-1.623125 11.70535156 -1.80875 10.71148437 -2 9.6875 C-2.185625 8.70136719 -2.37125 7.71523438 -2.5625 6.69921875 C-3 4 -3 4 -3 1 C-2.01 0.67 -1.02 0.34 0 0 Z " fill="#EFF0F0" transform="translate(348,407)"/>
<path d="M0 0 C1.98 0 3.96 0 6 0 C6.16435547 1.22976563 6.16435547 1.22976563 6.33203125 2.484375 C6.56986328 4.10085938 6.56986328 4.10085938 6.8125 5.75 C6.96332031 6.81734375 7.11414063 7.8846875 7.26953125 8.984375 C8.01320407 12.05451094 8.92765472 13.66080478 11 16 C6.89583836 15.42732628 3.9327865 14.5731146 0 13 C0 8.71 0 4.42 0 0 Z " fill="#373737" transform="translate(508,410)"/>
<path d="M0 0 C2.68092691 2.68092691 2.38670257 4.39167363 2.625 8.125 C2.69976562 9.22070312 2.77453125 10.31640625 2.8515625 11.4453125 C2.92503906 12.70988281 2.92503906 12.70988281 3 14 C3.99 14 4.98 14 6 14 C6.33 11.03 6.66 8.06 7 5 C7.33 5 7.66 5 8 5 C8.50146657 12.57771707 7.94998798 17.45783241 4 24 C2.35 23.67 0.7 23.34 -1 23 C-1.94631376 20.44495285 -2.1555969 19.36305944 -1.0625 16.8125 C0.62909686 12.3347436 0.6281233 7.42276131 -0.57421875 2.78515625 C-0.71472656 2.19605469 -0.85523438 1.60695313 -1 1 C-0.67 0.67 -0.34 0.34 0 0 Z " fill="#354149" transform="translate(327,374)"/>
<path d="M0 0 C2.31 0.33 4.62 0.66 7 1 C6.62875 1.53625 6.2575 2.0725 5.875 2.625 C4.72318025 5.09759784 4.72318025 5.09759784 5.6875 8.1875 C6.120625 9.115625 6.55375 10.04375 7 11 C10.00778521 12.00259507 12.53820647 12.30314642 15.6875 12.5625 C16.68136719 12.64628906 17.67523438 12.73007812 18.69921875 12.81640625 C19.45847656 12.87699219 20.21773438 12.93757813 21 13 C21.33 12.01 21.66 11.02 22 10 C22.66 10 23.32 10 24 10 C24.33 8.68 24.66 7.36 25 6 C25.66 6.33 26.32 6.66 27 7 C25.05153696 11.30285589 23.71441624 14.12810894 19.25 16 C14.8501224 17.34372426 11.48314906 16.88193096 7 16 C6.01 15.814375 5.02 15.62875 4 15.4375 C3.34 15.293125 2.68 15.14875 2 15 C2 14.67 2 14.34 2 14 C3.65 14 5.3 14 7 14 C6.360625 13.13375 5.72125 12.2675 5.0625 11.375 C3.02451704 8.0401188 2.36566907 5.83952522 2 2 C1.34 2 0.68 2 0 2 C0 1.34 0 0.68 0 0 Z " fill="#4C4E4D" transform="translate(247,413)"/>
<path d="M0 0 C0 4.29 0 8.58 0 13 C0.66 13.33 1.32 13.66 2 14 C-0.97 14 -3.94 14 -7 14 C-7 9.71 -7 5.42 -7 1 C-5 0 -5 0 0 0 Z " fill="#4A4A48" transform="translate(465,407)"/>
<path d="M0 0 C3 3 3 3 3.35644531 5.42016602 C3.34709961 6.35530029 3.33775391 7.29043457 3.328125 8.25390625 C3.32296875 9.27291016 3.3178125 10.29191406 3.3125 11.34179688 C3.291875 12.40462891 3.27125 13.46746094 3.25 14.5625 C3.24484375 15.62919922 3.2396875 16.69589844 3.234375 17.79492188 C3.15436126 25.69127747 3.15436126 25.69127747 2 28 C-0.97 27.67 -3.94 27.34 -7 27 C-6.34 26.67 -5.68 26.34 -5 26 C-5 22.04 -5 18.08 -5 14 C-4.34 13.67 -3.68 13.34 -3 13 C-2.34 11.68 -1.68 10.36 -1 9 C-0.67 14.28 -0.34 19.56 0 25 C0 16.75 0 8.5 0 0 Z " fill="#ADD3E7" transform="translate(274,391)"/>
<path d="M0 0 C3.30449423 0.56974038 5.03525469 1.23947796 7 4 C7.32490882 6.76603793 7.51138698 9.35516132 7.5625 12.125 C7.62473106 14.7755823 7.76620536 17.35427327 8 20 C8.66 20.33 9.32 20.66 10 21 C10 14.73 10 8.46 10 2 C13.58927264 9.17854529 14.49554932 13.35234886 12 21 C11 22 11 22 8.4375 22.0625 C7.633125 22.041875 6.82875 22.02125 6 22 C4.34502644 18.69005287 4.89915665 15.00877 4.9375 11.375 C4.94201172 10.57320313 4.94652344 9.77140625 4.95117188 8.9453125 C4.96296832 6.96350994 4.98090395 4.98174567 5 3 C3.35 2.67 1.7 2.34 0 2 C-0.33 2.66 -0.66 3.32 -1 4 C-0.67 2.68 -0.34 1.36 0 0 Z " fill="#535657" transform="translate(371,406)"/>
<path d="M0 0 C1.76462683 3.08809695 2 4.23312136 2 8 C1.34 8 0.68 8 0 8 C0 8.66 0 9.32 0 10 C-0.66 10 -1.32 10 -2 10 C-2 7.69 -2 5.38 -2 3 C-2.33 3.66 -2.66 4.32 -3 5 C-5.04243528 5.63385922 -7.09132519 6.01826504 -9.1875 6.4375 C-10.0846875 6.7159375 -10.0846875 6.7159375 -11 7 C-11.33 7.66 -11.66 8.32 -12 9 C-12.99 8.67 -13.98 8.34 -15 8 C-14.67 9.98 -14.34 11.96 -14 14 C-15.32 14 -16.64 14 -18 14 C-17.74126898 9.60157266 -17.43893111 7.50477078 -14.5 4.125 C-13.2625 3.073125 -13.2625 3.073125 -12 2 C-11.67 1.67 -11.34 1.34 -11 1 C-8.41182747 0.92810632 -5.8382749 1.00367557 -3.25 1.0625 C-1.02965595 1.25872256 -1.02965595 1.25872256 0 0 Z " fill="#AED5E8" transform="translate(319,401)"/>
<path d="M0 0 C-0.33 0.99 -0.66 1.98 -1 3 C-1.66386719 2.86980469 -2.32773437 2.73960937 -3.01171875 2.60546875 C-8.87061377 1.60315117 -8.87061377 1.60315117 -14.0625 4.125 C-15.94449017 6.91763057 -16.71523995 8.67779943 -17 12 C-18.32 12 -19.64 12 -21 12 C-20.58675744 6.7311573 -19.77055562 3.77055562 -16 0 C-11.1038962 -3.54545447 -5.15810932 -2.50090149 0 0 Z " fill="#BFE4F7" transform="translate(471,375)"/>
<path d="M0 0 C0.66 0 1.32 0 2 0 C3.32 3.3 4.64 6.6 6 10 C3.03 10.66 0.06 11.32 -3 12 C-7.0173913 6.64347826 -7.0173913 6.64347826 -6.9375 3.6875 C-6 2 -6 2 -3 1 C-2.67 1.66 -2.34 2.32 -2 3 C-1.34 2.01 -0.68 1.02 0 0 Z " fill="#EDEDEF" transform="translate(546,419)"/>
<path d="M0 0 C0.99 0 1.98 0 3 0 C3.66 2.97 4.32 5.94 5 9 C10.94 9.99 10.94 9.99 17 11 C16.67 12.32 16.34 13.64 16 15 C6.9089969 15.4622544 6.9089969 15.4622544 3 12 C0.80219623 7.9075378 -0.42360767 4.65968438 0 0 Z " fill="#363636" transform="translate(516,412)"/>
<path d="M0 0 C1.65 0 3.3 0 5 0 C6.46445037 2.92890074 6.43083621 5.74670315 6.6875 9 C6.79449219 10.258125 6.90148437 11.51625 7.01171875 12.8125 C7 16 7 16 5 18 C3.77164675 15.75900431 2.56770505 13.5098622 1.375 11.25 C1.024375 10.61578125 0.67375 9.9815625 0.3125 9.328125 C-0.6640625 7.453125 -0.6640625 7.453125 -2 4 C-1.2109375 1.546875 -1.2109375 1.546875 0 0 Z " fill="#B1D6EA" transform="translate(384,408)"/>
<path d="M0 0 C3.04996478 -0.07261821 5.86386903 -0.02367495 8.875 0.5 C12.65045293 1.10407247 16.17897958 1.06587966 20 1 C12.28540376 5.01015142 4.67582415 7.4310935 -4 8 C-3.1875 5.5625 -3.1875 5.5625 -2 3 C-1.01 2.67 -0.02 2.34 1 2 C0.67 1.34 0.34 0.68 0 0 Z " fill="#BADAE5" transform="translate(340,402)"/>
<path d="M0 0 C2.625 -0.1875 2.625 -0.1875 5 0 C5.33 0.99 5.66 1.98 6 3 C6.66 3 7.32 3 8 3 C8 4.32 8 5.64 8 7 C9.65 7 11.3 7 13 7 C13 7.33 13 7.66 13 8 C4.585 8.495 4.585 8.495 -4 9 C-2 3 -2 3 0 0 Z " fill="#EDECEE" transform="translate(459,399)"/>
<path d="M0 0 C2.60582854 2.60582854 3.75542053 5.60496684 5.1875 8.9375 C5.47302734 9.57107422 5.75855469 10.20464844 6.05273438 10.85742188 C8.1198489 15.6404533 8.1198489 15.6404533 7 19 C3.04 15.37 -0.92 11.74 -5 8 C-3.68 7.67 -2.36 7.34 -1 7 C-1.020625 6.030625 -1.04125 5.06125 -1.0625 4.0625 C-1 1 -1 1 0 0 Z " fill="#B2D4E7" transform="translate(609,586)"/>
<path d="M0 0 C1.65 0 3.3 0 5 0 C6.32229189 2.64458379 6.09677194 4.67761301 6.0625 7.625 C6.05347656 8.62789063 6.04445313 9.63078125 6.03515625 10.6640625 C6.02355469 11.43492187 6.01195312 12.20578125 6 13 C4.02 13 2.04 13 0 13 C0 8.71 0 4.42 0 0 Z " fill="#353637" transform="translate(494,408)"/>
<path d="M0 0 C1.65 0 3.3 0 5 0 C6.20272819 2.40545638 6.10071472 3.94996953 6.0625 6.625 C6.05347656 7.44226563 6.04445313 8.25953125 6.03515625 9.1015625 C6.02355469 9.72804688 6.01195312 10.35453125 6 11 C3.69 11 1.38 11 -1 11 C-1.0270043 9.54176788 -1.04639787 8.08339325 -1.0625 6.625 C-1.07410156 5.81289063 -1.08570313 5.00078125 -1.09765625 4.1640625 C-1 2 -1 2 0 0 Z " fill="#333533" transform="translate(480,408)"/>
<path d="M0 0 C0.78375 0.04125 1.5675 0.0825 2.375 0.125 C2.375 1.445 2.375 2.765 2.375 4.125 C1.75625 4.29 1.1375 4.455 0.5 4.625 C-2.90256949 7.02681375 -2.85112026 10.12662134 -3.625 14.125 C-4.945 14.455 -6.265 14.785 -7.625 15.125 C-7.94049831 9.86669479 -7.35845236 6.64570968 -4.625 2.125 C-2.625 0.125 -2.625 0.125 0 0 Z " fill="#AED6E8" transform="translate(289.625,401.875)"/>
<path d="M0 0 C3.28791299 2.00133834 4.71413435 3.03245472 5.8125 6.75 C5.874375 7.4925 5.93625 8.235 6 9 C5.34 9 4.68 9 4 9 C3.7525 8.38125 3.505 7.7625 3.25 7.125 C1.72610985 4.53438674 0.86546233 3.87555793 -2 3 C-5.13362718 2.91107661 -5.13362718 2.91107661 -8 4 C-9.23290201 6.45704762 -9.23290201 6.45704762 -10 9 C-10.99 9.33 -11.98 9.66 -13 10 C-12.76583445 5.94113045 -12.54687839 3.64338634 -9.875 0.5 C-6.03607395 -1.50291794 -4.12765476 -1.17932993 0 0 Z " fill="#AED1E4" transform="translate(467,377)"/>
<path d="M0 0 C5.94 0.99 5.94 0.99 12 2 C12 3.32 12 4.64 12 6 C9 8 9 8 6 7.8125 C2.9608455 6.98939566 1.72843947 6.5926592 0 4 C0 2.68 0 1.36 0 0 Z " fill="#515657" transform="translate(255,415)"/>
<path d="M0 0 C0.66 0.33 1.32 0.66 2 1 C1.52949219 1.55171875 1.05898438 2.1034375 0.57421875 2.671875 C-1.1802113 5.26651597 -1.66258637 7.18127415 -2.1875 10.25 C-2.34605469 11.14203125 -2.50460937 12.0340625 -2.66796875 12.953125 C-2.77753906 13.62859375 -2.88710938 14.3040625 -3 15 C-0.36 15 2.28 15 5 15 C4.67 15.99 4.34 16.98 4 18 C5.65 18 7.3 18 9 18 C9 18.33 9 18.66 9 19 C2.71739294 19.23268915 -2.88019467 18.40454548 -9 17 C-9 16.34 -9 15.68 -9 15 C-7.35 15 -5.7 15 -4 15 C-4.04640625 14.33613281 -4.0928125 13.67226563 -4.140625 12.98828125 C-4.43910806 5.68610635 -4.43910806 5.68610635 -2 1.875 C-1.34 1.25625 -0.68 0.6375 0 0 Z " fill="#CFEAF6" transform="translate(285,402)"/>
<path d="M0 0 C0.33 6.27 0.66 12.54 1 19 C-0.32 19.33 -1.64 19.66 -3 20 C-3.33 13.73 -3.66 7.46 -4 1 C-2 0 -2 0 0 0 Z " fill="#ADD2E7" transform="translate(395,407)"/>
<path d="M0 0 C4.95 0.99 4.95 0.99 10 2 C9.67 3.98 9.34 5.96 9 8 C3.25 9.125 3.25 9.125 1 8 C1.33 6.35 1.66 4.7 2 3 C1.34 2.67 0.68 2.34 0 2 C0 1.34 0 0.68 0 0 Z " fill="#ECECEC" transform="translate(499,421)"/>
<path d="M0 0 C4.29 0 8.58 0 13 0 C13.33 0.99 13.66 1.98 14 3 C13.67 3.66 13.34 4.32 13 5 C5.73846154 5.61538462 5.73846154 5.61538462 2 2.5 C1.34 1.675 0.68 0.85 0 0 Z " fill="#535555" transform="translate(332,423)"/>
<path d="M0 0 C0.66 0.33 1.32 0.66 2 1 C2.66 0.67 3.32 0.34 4 0 C3.67 1.98 3.34 3.96 3 6 C-2.94 6.495 -2.94 6.495 -9 7 C-9 5.35 -9 3.7 -9 2 C-6.03 2 -3.06 2 0 2 C0 1.34 0 0.68 0 0 Z " fill="#E4E5E6" transform="translate(449,403)"/>
<path d="M0 0 C1.65 0 3.3 0 5 0 C5 4.29 5 8.58 5 13 C3.68 13 2.36 13 1 13 C0.67 8.71 0.34 4.42 0 0 Z " fill="#363637" transform="translate(487,407)"/>
<path d="M0 0 C3.58326501 -0.05814085 7.16640838 -0.09364357 10.75 -0.125 C11.76578125 -0.14175781 12.7815625 -0.15851563 13.828125 -0.17578125 C14.8078125 -0.18222656 15.7875 -0.18867188 16.796875 -0.1953125 C17.69760742 -0.20578613 18.59833984 -0.21625977 19.52636719 -0.22705078 C22.13926856 0.01278324 23.75664666 0.67687936 26 2 C24.68 2 23.36 2 22 2 C22 5.96 22 9.92 22 14 C21.34 14 20.68 14 20 14 C20 9.71 20 5.42 20 1 C13.4 1 6.8 1 0 1 C0 0.67 0 0.34 0 0 Z " fill="#747374" transform="translate(472,406)"/>
<path d="M0 0 C2.31 0.33 4.62 0.66 7 1 C6.67 3.31 6.34 5.62 6 8 C4.33388095 8.042721 2.66617115 8.04063832 1 8 C0 7 0 7 -0.0625 3.4375 C-0.041875 2.303125 -0.02125 1.16875 0 0 Z " fill="#535353" transform="translate(281,420)"/>
<path d="M0 0 C0.33 0 0.66 0 1 0 C1.10834375 4.44209357 0.70173653 8.61414671 0 13 C0.99 13.66 1.98 14.32 3 15 C1.02 15.66 -0.96 16.32 -3 17 C-3.33 15.68 -3.66 14.36 -4 13 C-3.34 13 -2.68 13 -2 13 C-2.33 12.34 -2.66 11.68 -3 11 C-5.31 11 -7.62 11 -10 11 C-10 10.34 -10 9.68 -10 9 C-7.36 8.34 -4.72 7.68 -2 7 C-1.34 4.69 -0.68 2.38 0 0 Z " fill="#AFCEDE" transform="translate(288,385)"/>
<path d="M0 0 C3.0625 0.375 3.0625 0.375 4.9375 2 C6.33078383 4.94137697 6.28181821 7.15833296 6.0625 10.375 C5.0725 10.87 5.0725 10.87 4.0625 11.375 C3.7325 8.735 3.4025 6.095 3.0625 3.375 C1.4125 3.705 -0.2375 4.035 -1.9375 4.375 C-2.06125 5.179375 -2.185 5.98375 -2.3125 6.8125 C-2.51875 7.658125 -2.725 8.50375 -2.9375 9.375 C-3.9275 9.87 -3.9275 9.87 -4.9375 10.375 C-5.1328125 4.3203125 -5.1328125 4.3203125 -4.9375 2.375 C-2.9375 0.375 -2.9375 0.375 0 0 Z " fill="#343C44" transform="translate(429.9375,375.625)"/>
<path d="M0 0 C-0.875 5.875 -0.875 5.875 -2 7 C-3.66617115 7.04063832 -5.33388095 7.042721 -7 7 C-7.33 5.02 -7.66 3.04 -8 1 C-5.29120665 -0.35439668 -2.99066732 -0.06501451 0 0 Z " fill="#4E504F" transform="translate(369,421)"/>
<path d="M0 0 C0.66 0.33 1.32 0.66 2 1 C2 1.33 2 1.66 2 2 C4.97 2.33 7.94 2.66 11 3 C11 3.66 11 4.32 11 5 C13.31 5 15.62 5 18 5 C18 5.33 18 5.66 18 6 C11.07 6 4.14 6 -3 6 C-2.67 4.35 -2.34 2.7 -2 1 C-1.34 0.67 -0.68 0.34 0 0 Z " fill="#DFE0E0" transform="translate(314,417)"/>
<path d="M0 0 C2.64 0 5.28 0 8 0 C8 0.66 8 1.32 8 2 C8.639375 2.103125 9.27875 2.20625 9.9375 2.3125 C10.618125 2.539375 11.29875 2.76625 12 3 C12.33 3.99 12.66 4.98 13 6 C5.57142857 6.14285714 5.57142857 6.14285714 2 5 C2 4.34 2 3.68 2 3 C2.66 3 3.32 3 4 3 C4 2.34 4 1.68 4 1 C2.68 0.67 1.36 0.34 0 0 Z " fill="#E8EAE9" transform="translate(492,402)"/>
<path d="M0 0 C0.33 0 0.66 0 1 0 C1.22304441 1.74818591 1.4278645 3.49870323 1.625 5.25 C1.74101562 6.22453125 1.85703125 7.1990625 1.9765625 8.203125 C2.00112537 11.13429393 1.5312717 12.54528964 0 15 C0.99 15 1.98 15 3 15 C3.33 13.02 3.66 11.04 4 9 C4.66 9.33 5.32 9.66 6 10 C5.34 11.98 4.68 13.96 4 16 C2.34385343 16.38218767 0.67542976 16.71395102 -1 17 C-1.33 16.67 -1.66 16.34 -2 16 C-1.71765344 13.31770771 -1.37989726 10.66843494 -1 8 C-0.80968959 6.50035398 -0.62203716 5.00036738 -0.4375 3.5 C-0.293125 2.345 -0.14875 1.19 0 0 Z " fill="#3B4550" transform="translate(359,374)"/>
<path d="M0 0 C0.33 0 0.66 0 1 0 C1 1.98 1 3.96 1 6 C1.598125 6.103125 2.19625 6.20625 2.8125 6.3125 C5 7 5 7 6.28125 8.5 C8.67759545 10.59135603 10.55177593 10.50304564 13.6875 10.6875 C14.68136719 10.75324219 15.67523438 10.81898438 16.69921875 10.88671875 C17.83810547 10.94279297 17.83810547 10.94279297 19 11 C19 11.33 19 11.66 19 12 C13.39 12 7.78 12 2 12 C0.12595954 7.31489886 -0.19157797 4.88523811 0 0 Z " fill="#E0DFDF" transform="translate(331,411)"/>
<path d="M0 0 C0.33 0 0.66 0 1 0 C1.33 1.65 1.66 3.3 2 5 C2.33 5 2.66 5 3 5 C3.08096803 6.45742463 3.13917774 7.91612807 3.1875 9.375 C3.22230469 10.18710937 3.25710938 10.99921875 3.29296875 11.8359375 C3.19628906 12.55007813 3.09960938 13.26421875 3 14 C-0.98059383 16.65372922 -4.31469003 16 -9 16 C-8.67 15.34 -8.34 14.68 -8 14 C-5.67843403 13.59270772 -3.3431213 13.25561323 -1 13 C-0.67 8.71 -0.34 4.42 0 0 Z " fill="#ABD2E9" transform="translate(412,408)"/>
<path d="M0 0 C0.66 -0.33 1.32 -0.66 2 -1 C2.33 2.3 2.66 5.6 3 9 C1.68 8.67 0.36 8.34 -1 8 C-1 5.69 -1 3.38 -1 1 C-2.60568666 1.28317926 -4.20952047 1.57687791 -5.8125 1.875 C-6.70582031 2.03742188 -7.59914063 2.19984375 -8.51953125 2.3671875 C-11.22727846 2.91188449 -11.22727846 2.91188449 -14 5 C-13.375 3.125 -13.375 3.125 -12 1 C-7.59131868 -1.10414336 -4.70218016 -0.96180958 0 0 Z " fill="#A6CBDC" transform="translate(426,399)"/>
<path d="M0 0 C2.97 0 5.94 0 9 0 C9.33 1.65 9.66 3.3 10 5 C6.37 4.67 2.74 4.34 -1 4 C-0.67 2.68 -0.34 1.36 0 0 Z " fill="#FAFAFD" transform="translate(290,416)"/>
<path d="M0 0 C0 1.32 0 2.64 0 4 C-1.093125 4.2475 -2.18625 4.495 -3.3125 4.75 C-7.05908409 6.02002851 -8.10595266 6.65756352 -10 10 C-9.67 8.35 -9.34 6.7 -9 5 C-8.01 4.67 -7.02 4.34 -6 4 C-6 3.34 -6 2.68 -6 2 C-7.98 2.99 -7.98 2.99 -10 4 C-9.67 3.01 -9.34 2.02 -9 1 C-6.04335481 -0.4783226 -3.25770263 -0.06032783 0 0 Z " fill="#ABD3EA" transform="translate(424,402)"/>
<path d="M0 0 C2.97 0 5.94 0 9 0 C9 0.33 9 0.66 9 1 C7.35 1.33 5.7 1.66 4 2 C7.67953604 4.45302403 9.68197465 4.29890995 14.0625 4.3125 C15.93615234 4.33763672 15.93615234 4.33763672 17.84765625 4.36328125 C18.88792969 4.24339844 19.92820312 4.12351562 21 4 C21.66 3.01 22.32 2.02 23 1 C22.67 2.65 22.34 4.3 22 6 C19.41638482 6.05407567 16.83390745 6.093707 14.25 6.125 C13.52039063 6.14175781 12.79078125 6.15851563 12.0390625 6.17578125 C4.90298655 6.24065467 4.90298655 6.24065467 2 4 C1.34 2.68 0.68 1.36 0 0 Z " fill="#595A5A" transform="translate(302,422)"/>
<path d="M0 0 C3.93619738 0.56231391 6.79192446 1.61685817 10 4 C10 4.99 10 5.98 10 7 C6.6875 7.3125 6.6875 7.3125 3 7 C1.04421883 4.60259082 0 3.12413392 0 0 Z " fill="#454545" transform="translate(521,414)"/>
<path d="M0 0 C2.0625 0.4375 2.0625 0.4375 4 1 C3.67 1.66 3.34 2.32 3 3 C2.77377919 4.70363822 2.59111527 6.41328701 2.4375 8.125 C2.31181641 9.49011719 2.31181641 9.49011719 2.18359375 10.8828125 C2.12300781 11.58148438 2.06242187 12.28015625 2 13 C1.01 13 0.02 13 -1 13 C-1.02686553 11.02090602 -1.04633375 9.04171029 -1.0625 7.0625 C-1.07410156 5.96035156 -1.08570313 4.85820312 -1.09765625 3.72265625 C-1 1 -1 1 0 0 Z " fill="#313533" transform="translate(475,407)"/>
<path d="M0 0 C2.475 0.99 2.475 0.99 5 2 C5 2.33 5 2.66 5 3 C6.65 3.33 8.3 3.66 10 4 C10 4.99 10 5.98 10 7 C6.7 7 3.4 7 0 7 C0 4.69 0 2.38 0 0 Z " fill="#EEF0F0" transform="translate(439,398)"/>
<path d="M0 0 C2.19698784 1.73982585 2.94121423 2.60086076 3.35644531 5.42016602 C3.34709961 6.35530029 3.33775391 7.29043457 3.328125 8.25390625 C3.32296875 9.27291016 3.3178125 10.29191406 3.3125 11.34179688 C3.291875 12.40462891 3.27125 13.46746094 3.25 14.5625 C3.24484375 15.62919922 3.2396875 16.69589844 3.234375 17.79492188 C3.15436126 25.69127747 3.15436126 25.69127747 2 28 C0.35 27.67 -1.3 27.34 -3 27 C-2.01 26.34 -1.02 25.68 0 25 C0.41709358 22.38309243 0.41709358 22.38309243 0.29296875 19.3359375 C0.28330078 18.21445312 0.27363281 17.09296875 0.26367188 15.9375 C0.23853516 14.761875 0.21339844 13.58625 0.1875 12.375 C0.17396484 11.19164062 0.16042969 10.00828125 0.14648438 8.7890625 C0.11103916 5.85892461 0.06162769 2.92968541 0 0 Z " fill="#AFCDDD" transform="translate(274,391)"/>
<path d="M0 0 C0 1.65 0 3.3 0 5 C-1.98 5.99 -1.98 5.99 -4 7 C-4.99 6.34 -5.98 5.68 -7 5 C-7 3.68 -7 2.36 -7 1 C-4.53721199 -0.231394 -2.7204945 -0.07159196 0 0 Z " fill="#524F50" transform="translate(355,422)"/>
<path d="M0 0 C0.99 0.33 1.98 0.66 3 1 C3 5.62 3 10.24 3 15 C2.67 15 2.34 15 2 15 C1.67 12.03 1.34 9.06 1 6 C0.67 8.97 0.34 11.94 0 15 C-0.33 15 -0.66 15 -1 15 C-1.33 10.38 -1.66 5.76 -2 1 C-1.34 0.67 -0.68 0.34 0 0 Z " fill="#E7EBEB" transform="translate(353,405)"/>
<path d="M0 0 C1.89213369 2.38573379 3.02391783 4.07175348 4 7 C1.03 7.66 -1.94 8.32 -5 9 C-5 7.33333333 -5 5.66666667 -5 4 C-3.35 4 -1.7 4 0 4 C0 2.68 0 1.36 0 0 Z " fill="#E6E7EB" transform="translate(548,422)"/>
<path d="M0 0 C-2.07143201 4.03384128 -3.96615872 5.92856799 -8 8 C-8.33 5.69 -8.66 3.38 -9 1 C-5.8035914 -0.06546953 -3.34252724 -0.07427838 0 0 Z " fill="#E6E7E8" transform="translate(452,422)"/>
<path d="M0 0 C1.99954746 -0.04254356 4.00041636 -0.04080783 6 0 C7 1 7 1 7.0625 3.5625 C7.041875 4.366875 7.02125 5.17125 7 6 C4.66666667 6 2.33333333 6 0 6 C0 4.02 0 2.04 0 0 Z " fill="#EDECED" transform="translate(488,420)"/>
<path d="M0 0 C-2 2 -2 2 -4.0625 3 C-6.16865601 3.84589942 -6.16865601 3.84589942 -7 6 C-5.35 6.33 -3.7 6.66 -2 7 C-2.99 8.485 -2.99 8.485 -4 10 C-5.32 10 -6.64 10 -8 10 C-8 9.34 -8 8.68 -8 8 C-8.66 8 -9.32 8 -10 8 C-7.95662621 2.18424383 -6.49689233 -0.52677505 0 0 Z " fill="#B1D5EB" transform="translate(340,400)"/>
<path d="M0 0 C2.45862401 -0.05383848 4.9160755 -0.09359038 7.375 -0.125 C8.42300781 -0.15013672 8.42300781 -0.15013672 9.4921875 -0.17578125 C11.32897486 -0.19344267 13.16601963 -0.10303261 15 0 C15.66 0.66 16.32 1.32 17 2 C12.90274731 3.04167441 9.38504776 2.94409525 5.1875 2.5625 C4.02605469 2.46066406 2.86460937 2.35882813 1.66796875 2.25390625 C0.78753906 2.17011719 -0.09289062 2.08632813 -1 2 C-0.67 1.34 -0.34 0.68 0 0 Z " fill="#3A4449" transform="translate(589,381)"/>
<path d="M0 0 C2.4375 0.25 2.4375 0.25 5 1 C5.66 1.99 6.32 2.98 7 4 C6.01 4.495 6.01 4.495 5 5 C4.01 4.01 3.02 3.02 2 2 C2.66 5.3 3.32 8.6 4 12 C3.360625 11.195625 2.72125 10.39125 2.0625 9.5625 C0.59396498 7.7249496 0.59396498 7.7249496 -1 6 C-1.125 3.5 -1.125 3.5 -1 1 C-0.67 0.67 -0.34 0.34 0 0 Z " fill="#3D4A55" transform="translate(354,358)"/>
<path d="M0 0 C1.98 0 3.96 0 6 0 C6.23053497 2.84326464 6.35903101 4.46145349 4.75 6.875 C3 8 3 8 0.8125 7.6875 C0.214375 7.460625 -0.38375 7.23375 -1 7 C-0.525625 6.566875 -0.05125 6.13375 0.4375 5.6875 C2.23686957 3.97690387 2.23686957 3.97690387 3 1 C2.34 1 1.68 1 1 1 C1 1.66 1 2.32 1 3 C0.01 2.67 -0.98 2.34 -2 2 C-1.34 2 -0.68 2 0 2 C0 1.34 0 0.68 0 0 Z " fill="#EBEFED" transform="translate(462,386)"/>
<path d="M0 0 C0.33 0.66 0.66 1.32 1 2 C3.58605332 2.4683265 3.58605332 2.4683265 6.5625 2.625 C8.08037109 2.73714844 8.08037109 2.73714844 9.62890625 2.8515625 C10.80259766 2.92503906 10.80259766 2.92503906 12 3 C12 3.33 12 3.66 12 4 C6.06 4.33 0.12 4.66 -6 5 C-2 1 -2 1 0 0 Z " fill="#ABC9D3" transform="translate(476,534)"/>
<path d="M0 0 C0.598125 0.20625 1.19625 0.4125 1.8125 0.625 C2.1425 2.275 2.4725 3.925 2.8125 5.625 C1.86375 6.0375 0.915 6.45 -0.0625 6.875 C-3.19466624 8.6290131 -4.05250606 9.33351757 -5.1875 12.625 C-5.5175 11.635 -5.8475 10.645 -6.1875 9.625 C-4.1802092 6.6140638 -3.34865776 5.99483503 -0.1875 4.625 C-0.1875 3.965 -0.1875 3.305 -0.1875 2.625 C-1.8375 2.295 -3.4875 1.965 -5.1875 1.625 C-2.1875 -0.375 -2.1875 -0.375 0 0 Z " fill="#BCE3F7" transform="translate(292.1875,400.375)"/>
<path d="M0 0 C0.33 0 0.66 0 1 0 C1.33 3.3 1.66 6.6 2 10 C0.68 10 -0.64 10 -2 10 C-2 7.69 -2 5.38 -2 3 C-2.99 2.67 -3.98 2.34 -5 2 C-3.35 2 -1.7 2 0 2 C0 1.34 0 0.68 0 0 Z " fill="#5B5C5B" transform="translate(437,392)"/>
<path d="M0 0 C-0.37596209 2.78211944 -0.67318459 4.5879284 -2.4375 6.8125 C-4 8 -4 8 -6 8 C-6 7.01 -6 6.02 -6 5 C-6.66 4.67 -7.32 4.34 -8 4 C-4.5 0 -4.5 0 0 0 Z " fill="#373A38" transform="translate(272,418)"/>
<path d="M0 0 C2.97 0.33 5.94 0.66 9 1 C8.34 2.32 7.68 3.64 7 5 C4.625 4.75 4.625 4.75 2 4 C1.34 2.68 0.68 1.36 0 0 Z " fill="#32373C" transform="translate(257,416)"/>
<path d="M0 0 C0.33 0.66 0.66 1.32 1 2 C0.401875 2.556875 -0.19625 3.11375 -0.8125 3.6875 C-3.09884634 5.90120399 -3.09884634 5.90120399 -4.4375 8.6875 C-6 11 -6 11 -8.6875 11.8125 C-9.450625 11.874375 -10.21375 11.93625 -11 12 C-7.49102731 7.81576108 -3.91939465 3.80411834 0 0 Z " fill="#AECFDD" transform="translate(219,323)"/>
<path d="M0 0 C6.15234375 -0.09765625 6.15234375 -0.09765625 8 0 C9 1 9 1 9.09765625 3.72265625 C9.08605469 4.82480469 9.07445312 5.92695313 9.0625 7.0625 C9.05347656 8.16722656 9.04445313 9.27195312 9.03515625 10.41015625 C9.02355469 11.26480469 9.01195312 12.11945313 9 13 C8.67 13 8.34 13 8 13 C7.93941406 12.38511719 7.87882812 11.77023437 7.81640625 11.13671875 C7.73261719 10.32847656 7.64882813 9.52023437 7.5625 8.6875 C7.48128906 7.88699219 7.40007812 7.08648437 7.31640625 6.26171875 C7.04734307 3.83912821 7.04734307 3.83912821 6 1 C4.35 1 2.7 1 1 1 C0.34 2.32 -0.32 3.64 -1 5 C-0.67 3.35 -0.34 1.7 0 0 Z " fill="#575857" transform="translate(479,407)"/>
<path d="M0 0 C0.66 0 1.32 0 2 0 C5.125 6.625 5.125 6.625 4 10 C2.02 8.35 0.04 6.7 -2 5 C-1.34 3.35 -0.68 1.7 0 0 Z " fill="#ABC8DC" transform="translate(612,595)"/>
<path d="M0 0 C0.66 0 1.32 0 2 0 C2.33 3.3 2.66 6.6 3 10 C1.68 9.67 0.36 9.34 -1 9 C-1.09765625 2.84765625 -1.09765625 2.84765625 -1 1 C-0.67 0.67 -0.34 0.34 0 0 Z " fill="#F2F4F4" transform="translate(329,411)"/>
<path d="M0 0 C0.66 0 1.32 0 2 0 C2.66 3.96 3.32 7.92 4 12 C2.68 11.67 1.36 11.34 0 11 C0 7.37 0 3.74 0 0 Z " fill="#4F5050" transform="translate(500,410)"/>
<path d="M0 0 C1.65 0.33 3.3 0.66 5 1 C4.01 1.33 3.02 1.66 2 2 C1.95101563 2.60328125 1.90203125 3.2065625 1.8515625 3.828125 C1.77679688 4.62734375 1.70203125 5.4265625 1.625 6.25 C1.55539062 7.03890625 1.48578125 7.8278125 1.4140625 8.640625 C0.98492887 11.085877 0.21399362 12.84836903 -1 15 C-1.33 12.69 -1.66 10.38 -2 8 C-1.67 8 -1.34 8 -1 8 C-0.67 5.36 -0.34 2.72 0 0 Z " fill="#494C51" transform="translate(430,394)"/>
<path d="M0 0 C3 0 3 0 5 1 C4.67 2.32 4.34 3.64 4 5 C4.66 5.33 5.32 5.66 6 6 C2.67465243 7.10844919 0.37817425 6.84454356 -3 6 C-2.34 5.67 -1.68 5.34 -1 5 C-0.34444881 2.47266765 -0.34444881 2.47266765 0 0 Z " fill="#B0CFDF" transform="translate(252,408)"/>
<path d="M0 0 C0.66 0 1.32 0 2 0 C2 0.66 2 1.32 2 2 C5.3 2 8.6 2 12 2 C12 2.33 12 2.66 12 3 C11.30132812 3.02578125 10.60265625 3.0515625 9.8828125 3.078125 C8.97273438 3.13484375 8.06265625 3.1915625 7.125 3.25 C6.22007812 3.29640625 5.31515625 3.3428125 4.3828125 3.390625 C1.82889456 3.75611148 1.82889456 3.75611148 0.6796875 6.046875 C0.45539063 6.69140625 0.23109375 7.3359375 0 8 C0 5.36 0 2.72 0 0 Z " fill="#CAE0F0" transform="translate(437,384)"/>
<path d="M0 0 C1.9375 0.3125 1.9375 0.3125 4 1 C4.33 1.99 4.66 2.98 5 4 C5.99 4.33 6.98 4.66 8 5 C9.37195574 6.29355827 10.71182656 7.62298702 12 9 C11.67 9.99 11.34 10.98 11 12 C9.16364422 10.19047409 7.33083792 8.37759362 5.5 6.5625 C4.97535156 6.04623047 4.45070313 5.52996094 3.91015625 4.99804688 C2.58775448 3.68423213 1.29164432 2.34406495 0 1 C0 0.67 0 0.34 0 0 Z " fill="#28393C" transform="translate(528,304)"/>
<path d="M0 0 C6.625 0.75 6.625 0.75 10 3 C4.06 3.495 4.06 3.495 -2 4 C-1.34 2.68 -0.68 1.36 0 0 Z " fill="#B2CFDD" transform="translate(342,243)"/>
<path d="M0 0 C0.66 0 1.32 0 2 0 C2 0.99 2 1.98 2 3 C2.66 3 3.32 3 4 3 C4 3.99 4 4.98 4 6 C2.35 6.66 0.7 7.32 -1 8 C-1 7.34 -1 6.68 -1 6 C-1.66 5.67 -2.32 5.34 -3 5 C-2.67 4.34 -2.34 3.68 -2 3 C-1.34 3 -0.68 3 0 3 C0 2.01 0 1.02 0 0 Z " fill="#F6F8F7" transform="translate(527,407)"/>
<path d="M0 0 C0.33 0.99 0.66 1.98 1 3 C1.66 3 2.32 3 3 3 C4.85776765 6.13498292 5.20140476 8.37471432 5 12 C2.52140092 9.7991151 1.38789634 7.93627031 0.3125 4.8125 C0.06113281 4.09707031 -0.19023438 3.38164062 -0.44921875 2.64453125 C-0.63097656 2.10183594 -0.81273437 1.55914062 -1 1 C-0.67 0.67 -0.34 0.34 0 0 Z " fill="#B6D4E0" transform="translate(548,417)"/>
<path d="M0 0 C-0.33 0.66 -0.66 1.32 -1 2 C0.65 2 2.3 2 4 2 C4 2.33 4 2.66 4 3 C-0.8333472 3.08333357 -5.23692563 2.95261487 -10 2 C-6.19832777 -0.53444815 -4.31588991 -1.33941411 0 0 Z " fill="#D9DBDE" transform="translate(290,418)"/>
<path d="M0 0 C5.53846154 -0.36923077 5.53846154 -0.36923077 7.875 1.5 C8.24625 1.995 8.6175 2.49 9 3 C8 4 8 4 6.15234375 4.09765625 C4.1015625 4.06510417 2.05078125 4.03255208 0 4 C0 2.66666667 0 1.33333333 0 0 Z " fill="#ACD3E4" transform="translate(340,402)"/>
<path d="M0 0 C1 3 1 3 0.1796875 4.75390625 C-2.50173811 8.47097229 -4.36392345 10.80786603 -9 12 C-6 8 -3 4 0 0 Z " fill="#AFD0DC" transform="translate(200,342)"/>
<path d="M0 0 C0 0.99 0 1.98 0 3 C-5.14285714 7 -5.14285714 7 -9 7 C-9 6.34 -9 5.68 -9 5 C-6.03 3.35 -3.06 1.7 0 0 Z " fill="#B1D0DC" transform="translate(528,505)"/>
<path d="M0 0 C0.66 0.33 1.32 0.66 2 1 C1.67 3.31 1.34 5.62 1 8 C-0.65 8 -2.3 8 -4 8 C-3.34 7.67 -2.68 7.34 -2 7 C-1.62633887 5.00714063 -1.29259485 3.00636471 -1 1 C-0.67 0.67 -0.34 0.34 0 0 Z " fill="#303133" transform="translate(448,414)"/>
<path d="M0 0 C0.66 0.33 1.32 0.66 2 1 C2 2.32 2 3.64 2 5 C2.99 5.33 3.98 5.66 5 6 C5 6.33 5 6.66 5 7 C2.03 7 -0.94 7 -4 7 C-3.01 6.34 -2.02 5.68 -1 5 C-0.27034634 2.43717258 -0.27034634 2.43717258 0 0 Z " fill="#DFDEDF" transform="translate(300,415)"/>
<path d="M0 0 C2.12508244 3.18762365 2.5020163 5.26512223 3 9 C1.35 9 -0.3 9 -2 9 C-1.34 6.03 -0.68 3.06 0 0 Z " fill="#E1E0E1" transform="translate(371,412)"/>
<path d="M0 0 C0 0.99 0 1.98 0 3 C-2.33214148 4.20628008 -4.49642139 5.1654738 -7 6 C-7.33 4.35 -7.66 2.7 -8 1 C-5.07175348 0.02391783 -3.04386724 -0.08226668 0 0 Z " fill="#AED2E1" transform="translate(388,402)"/>
<path d="M0 0 C6.875 0.875 6.875 0.875 8 2 C8.14115161 4.67058851 8.04247107 7.32432238 8 10 C7.34 10 6.68 10 6 10 C5.7525 8.72125 5.505 7.4425 5.25 6.125 C4.48009414 2.73252682 4.48009414 2.73252682 1.875 0.5 C1.25625 0.335 0.6375 0.17 0 0 Z " fill="#393E4A" transform="translate(371,392)"/>
<path d="M0 0 C0.33 0.99 0.66 1.98 1 3 C-1.64 3 -4.28 3 -7 3 C-7 2.01 -7 1.02 -7 0 C-4.3333581 -1.33332095 -2.83319697 -0.67102033 0 0 Z " fill="#B6D6E7" transform="translate(467,383)"/>
<path d="M0 0 C0.680625 -0.01417969 1.36125 -0.02835937 2.0625 -0.04296875 C4 0.1875 4 0.1875 7 2.1875 C2.38 2.5175 -2.24 2.8475 -7 3.1875 C-7 2.5275 -7 1.8675 -7 1.1875 C-4.35559361 0.3060312 -2.71939248 0.02575182 0 0 Z " fill="#3E4450" transform="translate(353,256.8125)"/>
<path d="M0 0 C0.99 0.66 1.98 1.32 3 2 C0.75 4.5625 0.75 4.5625 -2 7 C-4.1875 6.75 -4.1875 6.75 -6 6 C-6.99 6.495 -6.99 6.495 -8 7 C-7.34 5.68 -6.68 4.36 -6 3 C-4.35 3.33 -2.7 3.66 -1 4 C-0.67 2.68 -0.34 1.36 0 0 Z " fill="#A9C7D9" transform="translate(348,390)"/>
<path d="M0 0 C4.21912747 0.4794463 6.79663178 1.16625119 10 4 C8.375 4.6875 8.375 4.6875 6 5 C2.75 3.5625 2.75 3.5625 0 2 C0 1.34 0 0.68 0 0 Z " fill="#B3D3E1" transform="translate(465,267)"/>
<path d="M0 0 C-5.445 2.475 -5.445 2.475 -11 5 C-11 4.01 -11 3.02 -11 2 C-4.5 -1.125 -4.5 -1.125 0 0 Z " fill="#31434C" transform="translate(401,205)"/>
<path d="M0 0 C-0.66 1.98 -1.32 3.96 -2 6 C-2.99 4.68 -3.98 3.36 -5 2 C-5.99 2.495 -5.99 2.495 -7 3 C-8.67654729 2.72057545 -10.34608154 2.39171753 -12 2 C-8.34215498 -0.11029521 -3.98761141 -1.99380571 0 0 Z " fill="#A7BDC5" transform="translate(436,195)"/>
<path d="M0 0 C4.51617599 -0.07654536 8.59085217 -0.10228696 13 1 C13 1.33 13 1.66 13 2 C6.565 2.495 6.565 2.495 0 3 C0 2.01 0 1.02 0 0 Z " fill="#A7CEDB" transform="translate(503,532)"/>
<path d="M0 0 C2.97 0 5.94 0 9 0 C9 0.99 9 1.98 9 3 C5.625 3.1875 5.625 3.1875 2 3 C1.34 2.01 0.68 1.02 0 0 Z " fill="#353635" transform="translate(335,423)"/>
<path d="M0 0 C0.33 0 0.66 0 1 0 C1.22134176 2.12368444 1.42670007 4.24904024 1.625 6.375 C1.74101562 7.55835938 1.85703125 8.74171875 1.9765625 9.9609375 C1.98429687 10.96382813 1.99203125 11.96671875 2 13 C1.34 13.66 0.68 14.32 0 15 C-0.99 13.02 -1.98 11.04 -3 9 C-2.01 9 -1.02 9 0 9 C0 6.03 0 3.06 0 0 Z " fill="#A5C8D8" transform="translate(389,411)"/>
<path d="M0 0 C2.97 0.495 2.97 0.495 6 1 C6 1.99 6 2.98 6 4 C5.34 4 4.68 4 4 4 C4 4.99 4 5.98 4 7 C3.34 7 2.68 7 2 7 C1.34 4.69 0.68 2.38 0 0 Z " fill="#B8D3DF" transform="translate(578,347)"/>
<path d="M0 0 C1.43655854 -0.08131463 2.8744483 -0.13933559 4.3125 -0.1875 C5.51326172 -0.23970703 5.51326172 -0.23970703 6.73828125 -0.29296875 C9.47851584 0.06198392 10.29171079 0.89366282 12 3 C9.18185434 4.40907283 7.82722796 3.50872691 4.875 2.5625 C3.96492187 2.27503906 3.05484375 1.98757813 2.1171875 1.69140625 C1.41851563 1.46324219 0.71984375 1.23507812 0 1 C0 0.67 0 0.34 0 0 Z " fill="#ABC3D2" transform="translate(534,533)"/>
<path d="M0 0 C0.66 0 1.32 0 2 0 C1.38909774 6.47556391 1.38909774 6.47556391 -0.4375 8.9375 C-2 10 -2 10 -4 10 C-3.71125 9.46375 -3.4225 8.9275 -3.125 8.375 C-1.83288192 5.64719516 -0.91441408 2.87387282 0 0 Z " fill="#ECEDEE" transform="translate(471,386)"/>
<path d="M0 0 C0.66 0 1.32 0 2 0 C2.28875 0.61875 2.5775 1.2375 2.875 1.875 C3.93720042 4.13325765 3.93720042 4.13325765 6 6 C2.25 7.125 2.25 7.125 0 6 C-0.6875 3.5 -0.6875 3.5 -1 1 C-0.67 0.67 -0.34 0.34 0 0 Z " fill="#E8F0ED" transform="translate(455,386)"/>
<path d="M0 0 C-0.33 0.99 -0.66 1.98 -1 3 C-2.32 2.67 -3.64 2.34 -5 2 C-5.33 2.66 -5.66 3.32 -6 4 C-8.31 4 -10.62 4 -13 4 C-8.68630028 1.12420019 -5.19265239 0 0 0 Z " fill="#A5C3D7" transform="translate(326,264)"/>
<path d="M0 0 C1.32 0 2.64 0 4 0 C4 1.65 4 3.3 4 5 C2.68 5 1.36 5 0 5 C0 3.35 0 1.7 0 0 Z " fill="#F4F4F4" transform="translate(476,420)"/>
<path d="M0 0 C2.3828125 -0.29296875 2.3828125 -0.29296875 5.125 -0.1875 C6.03507812 -0.16042969 6.94515625 -0.13335937 7.8828125 -0.10546875 C8.58148438 -0.07066406 9.28015625 -0.03585937 10 0 C6.96474514 2.02350324 5.80573798 2.32124018 2.3125 2.625 C1.50425781 2.69976562 0.69601562 2.77453125 -0.13671875 2.8515625 C-0.75160156 2.90054687 -1.36648438 2.94953125 -2 3 C-1.34 2.01 -0.68 1.02 0 0 Z " fill="#CAE1E5" transform="translate(338,407)"/>
<path d="M0 0 C1.99097846 2.98646769 2.94124926 5.59687262 4 9 C2.35 9 0.7 9 -1 9 C-1 8.01 -1 7.02 -1 6 C-0.34 6 0.32 6 1 6 C0.67 4.02 0.34 2.04 0 0 Z " fill="#A8D0DC" transform="translate(611,374)"/>
<path d="M0 0 C0.99 0.33 1.98 0.66 3 1 C1.8803014 2.00593243 0.7540588 3.0045849 -0.375 4 C-1.00148438 4.556875 -1.62796875 5.11375 -2.2734375 5.6875 C-4 7 -4 7 -6 7 C-4.61990379 3.66476748 -3.15049348 1.81392049 0 0 Z " fill="#32434D" transform="translate(358,227)"/>
<path d="M0 0 C1.5 1.375 1.5 1.375 3 3 C3 3.66 3 4.32 3 5 C-3.75 4.25 -3.75 4.25 -6 2 C-4.02 2 -2.04 2 0 2 C0 1.34 0 0.68 0 0 Z " fill="#A4C3CB" transform="translate(442,457)"/>
<path d="M0 0 C0.66 0 1.32 0 2 0 C4.125 6.75 4.125 6.75 3 9 C2.34 9 1.68 9 1 9 C0.67 6.03 0.34 3.06 0 0 Z " fill="#EDEDEE" transform="translate(550,447)"/>
<path d="M0 0 C3.36591866 1.44253657 5.51047079 3.33264727 8 6 C4.84918025 6 3.58152302 5.72101535 1 4 C0.25 1.875 0.25 1.875 0 0 Z " fill="#2D3C49" transform="translate(403,442)"/>
<path d="M0 0 C0.99 0 1.98 0 3 0 C3.33 1.98 3.66 3.96 4 6 C2.68 5.67 1.36 5.34 0 5 C0 3.35 0 1.7 0 0 Z " fill="#373938" transform="translate(282,420)"/>
<path d="M0 0 C0.66 0 1.32 0 2 0 C1.8125 1.875 1.8125 1.875 1 4 C-1.5625 5.25 -1.5625 5.25 -4 6 C-4 4.68 -4 3.36 -4 2 C-3.01 2 -2.02 2 -1 2 C-0.67 1.34 -0.34 0.68 0 0 Z " fill="#36404C" transform="translate(494,520)"/>
<path d="M0 0 C2.97 0.33 5.94 0.66 9 1 C9.33 1.99 9.66 2.98 10 4 C5.78087253 3.5205537 3.20336822 2.83374881 0 0 Z " fill="#B1D0DC" transform="translate(426,455)"/>
<path d="M0 0 C0.33 0 0.66 0 1 0 C1.0270043 1.45823212 1.04639787 2.91660675 1.0625 4.375 C1.07410156 5.18710937 1.08570313 5.99921875 1.09765625 6.8359375 C1 9 1 9 0 11 C-0.66 11 -1.32 11 -2 11 C-1.85957123 9.35369672 -1.71250671 7.70795821 -1.5625 6.0625 C-1.48128906 5.14597656 -1.40007812 4.22945313 -1.31640625 3.28515625 C-1 1 -1 1 0 0 Z " fill="#ABD3E5" transform="translate(267,394)"/>
<path d="M0 0 C2.9719385 1.12451727 5.33440687 2.22293791 8 4 C7.67 4.99 7.34 5.98 7 7 C1.125 3.375 1.125 3.375 0 0 Z " fill="#CFE6F4" transform="translate(529,401)"/>
<path d="M0 0 C0.33 0.66 0.66 1.32 1 2 C2.98 1.67 4.96 1.34 7 1 C6.67 2.32 6.34 3.64 6 5 C4.35 5 2.7 5 1 5 C0.67 3.35 0.34 1.7 0 0 Z " fill="#314354" transform="translate(341,389)"/>
<path d="M0 0 C1.12588014 0.95729916 2.2506715 1.91587895 3.375 2.875 C4.00148437 3.40867187 4.62796875 3.94234375 5.2734375 4.4921875 C6.55836651 5.61432007 7.79371975 6.79371975 9 8 C4.75153925 7.52794881 2.73180712 5.11122478 0 2 C0 1.34 0 0.68 0 0 Z " fill="#394957" transform="translate(187,384)"/>
<path d="M0 0 C0.99 0 1.98 0 3 0 C3 3.63 3 7.26 3 11 C2.67 11 2.34 11 2 11 C1.34 7.37 0.68 3.74 0 0 Z " fill="#BBD0DF" transform="translate(356,371)"/>
<path d="M0 0 C2 4 2 4 2 8 C0.68 8.33 -0.64 8.66 -2 9 C-1.34 6.03 -0.68 3.06 0 0 Z " fill="#3D4553" transform="translate(430,208)"/>
<path d="M0 0 C0.66 0 1.32 0 2 0 C5 5.75 5 5.75 5 8 C4.34 8 3.68 8 3 8 C3 7.34 3 6.68 3 6 C2.34 5.67 1.68 5.34 1 5 C0.375 2.4375 0.375 2.4375 0 0 Z " fill="#A9C8D3" transform="translate(595,560)"/>
<path d="M0 0 C4.29 0.33 8.58 0.66 13 1 C13 1.33 13 1.66 13 2 C6.375 3 6.375 3 3 3 C2.01 2.01 1.02 1.02 0 0 Z " fill="#434343" transform="translate(520,427)"/>
<path d="M0 0 C2.97 0.33 5.94 0.66 9 1 C7.515 2.485 7.515 2.485 6 4 C3.9375 3.875 3.9375 3.875 2 3 C1.34 2.01 0.68 1.02 0 0 Z " fill="#555756" transform="translate(256,426)"/>
<path d="M0 0 C2.31 0.33 4.62 0.66 7 1 C6.34 1.66 5.68 2.32 5 3 C4.30251417 4.31747324 3.63040043 5.64914193 3 7 C2.67 5.35 2.34 3.7 2 2 C1.34 2 0.68 2 0 2 C0 1.34 0 0.68 0 0 Z " fill="#505658" transform="translate(247,413)"/>
<path d="M0 0 C0.99 0.33 1.98 0.66 3 1 C3.25 3.8125 3.25 3.8125 3 7 C1 8.875 1 8.875 -1 10 C-1.66 9.34 -2.32 8.68 -3 8 C-1.68 7.34 -0.36 6.68 1 6 C0.67 4.02 0.34 2.04 0 0 Z " fill="#AAD1E8" transform="translate(293,400)"/>
<path d="M0 0 C2.31 0.66 4.62 1.32 7 2 C7 2.66 7 3.32 7 4 C2.545 3.01 2.545 3.01 -2 2 C-1.34 1.34 -0.68 0.68 0 0 Z " fill="#BCD7E5" transform="translate(526,398)"/>
<path d="M0 0 C1.485 0.99 1.485 0.99 3 2 C3.1875 4.625 3.1875 4.625 3 7 C2.01 7.495 2.01 7.495 1 8 C-0.35439668 5.29120665 -0.06501451 2.99066732 0 0 Z " fill="#AFD1D7" transform="translate(181,370)"/>
<path d="M0 0 C0.99 0 1.98 0 3 0 C3 0.99 3 1.98 3 3 C6.465 2.505 6.465 2.505 10 2 C9.67 2.66 9.34 3.32 9 4 C6.69 4 4.38 4 2 4 C1.34 2.68 0.68 1.36 0 0 Z " fill="#36414D" transform="translate(569,360)"/>
<path d="M0 0 C0.99 0.33 1.98 0.66 3 1 C1.02 3.31 -0.96 5.62 -3 8 C-3.33 7.01 -3.66 6.02 -4 5 C-2.0625 2.3125 -2.0625 2.3125 0 0 Z " fill="#3C454C" transform="translate(196,344)"/>
<path d="M0 0 C1.32 0.99 2.64 1.98 4 3 C3.67 3.66 3.34 4.32 3 5 C1.68 5 0.36 5 -1 5 C-1.33 4.01 -1.66 3.02 -2 2 C-1.34 1.34 -0.68 0.68 0 0 Z " fill="#AACADC" transform="translate(233,302)"/>
<path d="M0 0 C2.12508244 3.18762365 2.5020163 5.26512223 3 9 C2.01 8.67 1.02 8.34 0 8 C0 5.36 0 2.72 0 0 Z " fill="#A5C4D0" transform="translate(436,441)"/>
<path d="M0 0 C4.875 4.625 4.875 4.625 6 8 C5.01 8 4.02 8 3 8 C0 2.25 0 2.25 0 0 Z " fill="#3C4D58" transform="translate(390,427)"/>
<path d="M0 0 C0.99 0.33 1.98 0.66 3 1 C2.67 1.99 2.34 2.98 2 4 C1.34 4 0.68 4 0 4 C-0.33 4.99 -0.66 5.98 -1 7 C-1.625 5.1875 -1.625 5.1875 -2 3 C-1.34 2.01 -0.68 1.02 0 0 Z " fill="#ACD1E6" transform="translate(309,408)"/>
<path d="M0 0 C2.0625 0.4375 2.0625 0.4375 4 1 C3.01 1.66 2.02 2.32 1 3 C1.33 4.65 1.66 6.3 2 8 C1.01 7.34 0.02 6.68 -1 6 C-1.25 3.4375 -1.25 3.4375 -1 1 C-0.67 0.67 -0.34 0.34 0 0 Z " fill="#384956" transform="translate(323,365)"/>
<path d="M0 0 C2.64 0 5.28 0 8 0 C8.33 0.99 8.66 1.98 9 3 C6.03 2.67 3.06 2.34 0 2 C0 1.34 0 0.68 0 0 Z " fill="#3E4A48" transform="translate(577,346)"/>
</svg>
